<?xml version="1.0" encoding="UTF-8"?>
<svg version="1.1" xmlns="http://www.w3.org/2000/svg" width="543" height="513">
<path d="M0 0 C0.88365234 0.78697266 0.88365234 0.78697266 1.78515625 1.58984375 C15.06589785 13.92868879 24.68337951 31.20195431 31 48 C31 48.66 31 49.32 31 50 C32.36705078 50.02126953 32.36705078 50.02126953 33.76171875 50.04296875 C66.91544742 51.26355379 96.13005395 65.43484199 120 88 C120.82242187 88.75796875 121.64484375 89.5159375 122.4921875 90.296875 C146.1164704 112.81721945 160.14485206 146.2851531 161.203125 178.76953125 C161.79279108 216.79735939 148.99280063 251.39020669 122.796875 279.15234375 C118.71081532 283.31259167 114.42405419 287.19972786 110 291 C110.30744141 292.35931641 110.30744141 292.35931641 110.62109375 293.74609375 C110.89050781 294.96425781 111.15992188 296.18242187 111.4375 297.4375 C111.83775391 299.22994141 111.83775391 299.22994141 112.24609375 301.05859375 C114.00165853 309.76294931 114.18254981 318.38916775 114.1875 327.25 C114.19974609 328.38824219 114.21199219 329.52648437 114.22460938 330.69921875 C114.27837704 362.27875808 101.81801897 393.31053014 81 417 C80.34 417 79.68 417 79 417 C78.731875 417.59296875 78.46375 418.1859375 78.1875 418.796875 C68.11569836 437.48271753 38.17728864 450.86046904 18.75 456.97265625 C12.55861897 458.66883668 6.32502286 459.90514224 0 461 C-1.39786743 461.25801392 -1.39786743 461.25801392 -2.82397461 461.52124023 C-32.35342736 465.97256292 -62.20001042 459.27037792 -87.8984375 444.69921875 C-89.43371094 443.85810547 -89.43371094 443.85810547 -91 443 C-91.79277344 442.50242187 -92.58554687 442.00484375 -93.40234375 441.4921875 C-97.72867504 440.67246157 -100.59042397 443.19281904 -104.1875 445.4375 C-134.53576071 463.2562645 -171.15216157 467.91250644 -205.35839844 459.4140625 C-223.07235007 454.51911979 -239.61459295 446.40757875 -254 435 C-254.53157715 434.58121582 -255.0631543 434.16243164 -255.61083984 433.73095703 C-265.39024305 425.98379378 -265.39024305 425.98379378 -268 423 C-268 422.34 -268 421.68 -268 421 C-268.66 421 -269.32 421 -270 421 C-286.38384743 404.0158823 -297.56125544 381.79481828 -303 359 C-303.31839844 357.72769531 -303.63679688 356.45539063 -303.96484375 355.14453125 C-308.35738118 335.67208243 -307.7976944 313.62778398 -301.9375 294.5390625 C-302.0094386 290.4655391 -302.42132959 290.07193127 -305.18359375 287.32421875 C-306.58235294 286.08986349 -308.00133352 284.87812422 -309.4375 283.6875 C-310.85661153 282.46658131 -312.27218164 281.24153006 -313.68359375 280.01171875 C-314.63576782 279.21447388 -314.63576782 279.21447388 -315.60717773 278.40112305 C-317 277 -317 277 -317 275 C-317.66 275 -318.32 275 -319 275 C-320.62054841 273.1833928 -322.09775454 271.3751379 -323.5625 269.4375 C-324.00577637 268.85178223 -324.44905273 268.26606445 -324.90576172 267.66259766 C-346.92572929 238.02304714 -356.70887528 202.04079377 -351.6875 165.36328125 C-346.46913568 130.6751363 -328.03343421 98.83321528 -300.1875 77.3125 C-277.16332863 60.78997288 -251.59527072 50.4449052 -223 50 C-222.83709473 49.45835205 -222.67418945 48.9167041 -222.50634766 48.35864258 C-220.65415931 42.47993042 -218.26778999 37.12335296 -215.375 31.6875 C-214.93333496 30.85718262 -214.49166992 30.02686523 -214.03662109 29.17138672 C-196.96817997 -2.2357663 -166.54969213 -25.25265831 -132.5 -35.4375 C-83.53727107 -48.02137893 -36.33248949 -34.13052043 0 0 Z M-170 18 C-170.62132812 18.53753906 -171.24265625 19.07507813 -171.8828125 19.62890625 C-180.62713314 27.74282238 -188.07428146 39.18744711 -193 50 C-193 50.66 -193 51.32 -193 52 C-192.37657715 52.18062988 -191.7531543 52.36125977 -191.11083984 52.54736328 C-168.23447337 59.22016375 -148.21758173 67.24257033 -130 83 C-129.19433594 83.67289062 -128.38867188 84.34578125 -127.55859375 85.0390625 C-116.49405761 94.56252867 -108.30884862 105.43274899 -101 118 C-100.00685089 119.60841709 -99.00793998 121.2133103 -98 122.8125 C-97.34 123.864375 -96.68 124.91625 -96 126 C-93.63624563 123.00120714 -91.78186287 119.90229222 -89.9375 116.5625 C-86.81574028 111.12610219 -83.28844305 106.2433067 -79.37670898 101.36547852 C-77.23823085 98.68722307 -75.37140257 96.15195286 -74 93 C-73.34 93 -72.68 93 -72 93 C-69.33333333 90.66666667 -69.33333333 90.66666667 -67 88 C-67 87.34 -67 86.68 -67 86 C-66.41347656 85.73574219 -65.82695312 85.47148437 -65.22265625 85.19921875 C-62.92028969 83.95699286 -61.33525385 82.60368452 -59.4375 80.8125 C-45.17275195 68.1414326 -27.07653844 60.38660197 -9 55 C-7.89269531 54.6596875 -6.78539062 54.319375 -5.64453125 53.96875 C-3.43407088 53.29532343 -1.22137208 52.63627241 1 52 C-5.86579104 28.83662417 -27.05289572 10.95168679 -47.47265625 -0.18359375 C-52.85489667 -2.95517935 -58.23813328 -5.14961766 -64 -7 C-65.17949219 -7.39316406 -66.35898437 -7.78632812 -67.57421875 -8.19140625 C-104.44999431 -19.25883647 -142.10520403 -6.55656629 -170 18 Z M-295 111 C-295.72703125 111.72703125 -296.4540625 112.4540625 -297.203125 113.203125 C-309.76414559 126.55539098 -317.75333126 143.29911255 -322 161 C-322.17732666 161.72034424 -322.35465332 162.44068848 -322.53735352 163.18286133 C-328.48329132 189.50116516 -323.10537532 218.26541631 -308.875 241 C-305.47291783 246.22224793 -301.65133345 251.05954586 -297.625 255.8125 C-297.11308105 256.41771484 -296.60116211 257.02292969 -296.07373047 257.64648438 C-293.76850044 260.28583896 -292.38188012 261.87270663 -289 263 C-288.45472656 262.11699219 -287.90945313 261.23398437 -287.34765625 260.32421875 C-265.94448787 226.07435043 -236.03328928 205.57978987 -197 196 C-194.00462759 195.31132922 -191.00472522 194.64657529 -188 194 C-188.66 193.67 -189.32 193.34 -190 193 C-190 192.34 -190 191.68 -190 191 C-190.66 191 -191.32 191 -192 191 C-192 190.34 -192 189.68 -192 189 C-192.66 189 -193.32 189 -194 189 C-194.25910156 188.41476563 -194.51820313 187.82953125 -194.78515625 187.2265625 C-196.08923048 184.83645861 -197.52544314 183.30693271 -199.4375 181.375 C-225.33375144 152.65883007 -230.5039052 116.02927947 -230 79 C-254.54176875 78.39561515 -278.36400108 94.36400108 -295 111 Z M38 79 C38.01571045 80.16233154 38.01571045 80.16233154 38.03173828 81.34814453 C38.37039127 110.18508982 38.37039127 110.18508982 36 121 C35.731875 122.27230469 35.46375 123.54460937 35.1875 124.85546875 C29.33652262 151.05712323 16.16540735 172.56213658 -2 192 C-1.67 192.66 -1.34 193.32 -1 194 C0.79356737 194.61905983 0.79356737 194.61905983 2.98828125 195.0078125 C4.25067627 195.27416504 4.25067627 195.27416504 5.53857422 195.54589844 C6.91166748 195.83255371 6.91166748 195.83255371 8.3125 196.125 C45.27350933 204.43980333 74.14922159 226.31224334 94.7890625 257.72265625 C95.88839716 259.46378125 96.95123754 261.22795309 98 263 C117.65925827 247.43642053 129.12828343 222.3778128 132.27294922 197.87304688 C135.35688622 169.17961115 127.80849357 141.81454142 110.25 118.9375 C92.79715039 97.98047201 70.10292159 83.80858286 43 79 C41.33353791 78.97388735 39.66636493 78.96828717 38 79 Z M-201 80 C-206.97977068 102.05040438 -200.56148604 127.80859711 -189.6875 147.4375 C-185.78039131 154.22497718 -181.14124698 160.09479263 -176 166 C-175.46117187 166.75796875 -174.92234375 167.5159375 -174.3671875 168.296875 C-173.91601562 168.85890625 -173.46484375 169.4209375 -173 170 C-172.34 170 -171.68 170 -171 170 C-171 170.66 -171 171.32 -171 172 C-170.34 172 -169.68 172 -169 172 C-169 172.66 -169 173.32 -169 174 C-157.34774716 184.55486602 -143.76326016 192.03732309 -128.9375 197.0625 C-127.61685547 197.5114563 -127.61685547 197.5114563 -126.26953125 197.96948242 C-121.32266842 199.54894235 -117.1902759 200.33099453 -112 200 C-105.84475457 176.02432627 -114.73164893 148.47266848 -126.80615234 127.90820312 C-129.74574311 123.20966704 -133.30414821 119.10872172 -137 115 C-137.62261719 114.23558594 -138.24523437 113.47117188 -138.88671875 112.68359375 C-153.13252764 95.51097297 -174.53762346 84.87986667 -196 80 C-198.83423492 79.82987987 -198.83423492 79.82987987 -201 80 Z M-3.625 82.1875 C-4.32866699 82.41598633 -5.03233398 82.64447266 -5.75732422 82.87988281 C-21.29671344 88.01377782 -36.06615291 95.53360775 -48 107 C-48 107.66 -48 108.32 -48 109 C-48.66 109 -49.32 109 -50 109 C-50 109.66 -50 110.32 -50 111 C-50.66 111 -51.32 111 -52 111 C-72.6040546 133.82402007 -81.87233379 161.46831727 -81 192 C-80.77629102 194.70765007 -80.43798588 197.31733646 -80 200 C-59.47726028 200.84520936 -37.9093184 186.57748732 -22.875 173.8125 C-3.29724576 155.5060285 9.85949999 128.89372597 11 102 C11.2046225 94.57131365 10.9986568 87.3650939 10 80 C5.09507993 79.73425356 0.99044873 80.6672482 -3.625 82.1875 Z M-251.48925781 257.25292969 C-257.48718983 264.18912903 -262.60392785 271.45574205 -266 280 C-242.8625662 292.22354993 -214.94089131 295.69483801 -189.66162109 288.32543945 C-174.78326604 283.66502927 -161.16458032 276.80381693 -149.15625 266.796875 C-147 265 -147 265 -144.71875 263.390625 C-143.86796875 262.70226562 -143.86796875 262.70226562 -143 262 C-143 261.34 -143 260.68 -143 260 C-142.34 260 -141.68 260 -141 260 C-139.18158072 257.93429982 -137.48683729 255.86588141 -135.8125 253.6875 C-135.32362305 253.05610107 -134.83474609 252.42470215 -134.33105469 251.77416992 C-128.07129 243.75930053 -128.07129 243.75930053 -123 235 C-123.69935123 231.7485858 -123.69935123 231.7485858 -126.78125 230.53515625 C-171.10073776 212.98426667 -218.79050821 221.28637335 -251.48925781 257.25292969 Z M-68 231 C-69.36415646 233.96401012 -69.36415646 233.96401012 -67.84765625 236.56640625 C-52.32267756 262.6225521 -29.23050392 281.54539875 0.390625 289.2578125 C13.70954852 291.99655218 27.01879875 292.89697636 40.5 290.875 C41.35150635 290.74738281 42.2030127 290.61976563 43.08032227 290.48828125 C53.64574117 288.75454902 64.96233411 285.94257483 74 280 C70.53190224 262.69892141 51.5865831 246.7615578 37.6328125 237.3203125 C27.10391854 230.46049329 16.01297609 226.32246085 4 223 C3.20335937 222.76410156 2.40671875 222.52820313 1.5859375 222.28515625 C-20.56970436 216.42545946 -47.81136649 220.36694162 -68 231 Z M-98.6796875 253.5546875 C-117.96000017 273.93281157 -128.40386083 301.68310515 -128.09594727 329.68530273 C-127.01837541 355.68138097 -117.27532507 379.65886625 -100 399 C-98.37013607 400.37807805 -96.71525641 401.72978309 -95 403 C-83.83579806 391.57941764 -75.2814003 379.20391637 -70 364 C-69.75733398 363.31856934 -69.51466797 362.63713867 -69.26464844 361.93505859 C-60.65614882 336.69366741 -62.69516477 307.03854504 -73.8125 282.9375 C-79.53827052 271.30812326 -86.79333238 261.11693402 -96 252 C-97.25914486 251.88678802 -97.25914486 251.88678802 -98.6796875 253.5546875 Z M-38 304 C-37.89171875 305.16789062 -37.89171875 305.16789062 -37.78125 306.359375 C-34.62373239 344.42500391 -41.3278683 380.16673631 -65 411 C-66.85985346 413.14935228 -68.7463071 415.26368343 -70.67749023 417.34912109 C-72.20840523 418.90760307 -72.20840523 418.90760307 -72 421 C-44.22111863 434.6781214 -16.27994324 437.94391844 13.5 428.875 C26.20791241 424.36836013 37.92059779 417.99446656 48 409 C49.2065625 408.00613281 49.2065625 408.00613281 50.4375 406.9921875 C70.45655513 390.03855019 82.55897215 365.55830299 85.7265625 339.6796875 C87.39272845 322.94556919 87.39272845 322.94556919 84 307 C82.824375 307.391875 81.64875 307.78375 80.4375 308.1875 C79.6125 308.45949219 78.7875 308.73148437 77.9375 309.01171875 C75.82601556 309.72209849 73.72266448 310.45682486 71.625 311.20703125 C34.09775635 324.36541859 -2.21373941 319.54171768 -38 304 Z M-160.16601562 306.28613281 C-193.82033485 321.39842265 -230.08050154 323.28352092 -265 311 C-267.42330354 309.97075488 -269.81220079 308.89586161 -272.18969727 307.76513672 C-273.97947577 306.87022943 -273.97947577 306.87022943 -276 307 C-281.41490211 334.79972067 -276.13852658 362.86952429 -260.65625 386.6953125 C-254.92557116 395.19745296 -248.87142565 402.43353733 -241 409 C-240.25878906 409.64066406 -239.51757812 410.28132813 -238.75390625 410.94140625 C-217.20858778 429.01966198 -189.44206256 436.93108846 -161.5390625 434.7265625 C-145.90814781 432.96016916 -131.73570168 428.66284322 -118 421 C-121.84340561 415.78483041 -121.84340561 415.78483041 -125.8984375 410.734375 C-131.58183415 403.95024145 -135.82074996 396.75878708 -140 389 C-140.38929688 388.30390625 -140.77859375 387.6078125 -141.1796875 386.890625 C-150.70957609 369.09099837 -155.24074821 347.97591753 -155.125 327.875 C-155.12306641 327.05475342 -155.12113281 326.23450684 -155.11914062 325.3894043 C-155.06900188 318.22861616 -154.65159095 311.13259377 -154 304 C-156.19862213 304 -158.18882485 305.39649398 -160.16601562 306.28613281 Z " fill="#204E6F" transform="translate(365,44)"/>
<path d="M0 0 C0.66 0.33 1.32 0.66 2 1 C-4.93 7.93 -11.86 14.86 -19 22 C-19.66 21.67 -20.32 21.34 -21 21 C-14.32497556 13.59083582 -7.66925098 6.41040928 0 0 Z " fill="#608098" transform="translate(185,33)"/>
<path d="M0 0 C0 3 0 3 -2.1875 5.48046875 C-3.115625 6.37378906 -4.04375 7.26710937 -5 8.1875 C-5.928125 9.08855469 -6.85625 9.98960937 -7.8125 10.91796875 C-8.534375 11.60503906 -9.25625 12.29210937 -10 13 C-10.66 12.67 -11.32 12.34 -12 12 C-11.34 11.01 -10.68 10.02 -10 9 C-9.34 9 -8.68 9 -8 9 C-7.731875 8.360625 -7.46375 7.72125 -7.1875 7.0625 C-6 5 -6 5 -3 4 C-3 3.34 -3 2.68 -3 2 C-2.01 1.34 -1.02 0.68 0 0 Z " fill="#618198" transform="translate(301,128)"/>
</svg>
