<?xml version="1.0" encoding="utf-8"?>
<!-- Generator: Adobe Illustrator 23.0.0, SVG Export Plug-In . SVG Version: 6.00 Build 0)  -->
<svg version="1.1" id="Layer_1" xmlns="http://www.w3.org/2000/svg" xmlns:xlink="http://www.w3.org/1999/xlink" x="0px" y="0px"
	 viewBox="0 0 51 51" style="enable-background:new 0 0 51 51;" xml:space="preserve">
<style type="text/css">
	.st0{clip-path:url(#SVGID_2_);}
	.st1{fill:#FFFFFF;filter:url(#Adobe_OpacityMaskFilter);}
	.st2{mask:url(#mask0_744_8171_1_);}
	.st3{opacity:0.2241;}
	.st4{fill:url(#SVGID_3_);}
	.st5{opacity:0.7;fill:url(#SVGID_4_);enable-background:new    ;}
	.st6{fill:url(#SVGID_5_);}
	.st7{opacity:0.7;fill:url(#SVGID_6_);enable-background:new    ;}
	.st8{fill:url(#SVGID_7_);}
	.st9{opacity:0.7;fill:url(#SVGID_8_);enable-background:new    ;}
	.st10{fill:url(#SVGID_9_);}
	.st11{opacity:0.7;fill:url(#SVGID_10_);enable-background:new    ;}
	.st12{opacity:0.6;fill:url(#SVGID_11_);enable-background:new    ;}
	.st13{opacity:0.7;fill:url(#SVGID_12_);enable-background:new    ;}
	.st14{opacity:0.6;fill:url(#SVGID_13_);enable-background:new    ;}
	.st15{fill:url(#SVGID_14_);}
	.st16{fill:url(#SVGID_15_);}
	.st17{opacity:3.225800e-02;fill-rule:evenodd;clip-rule:evenodd;fill:#7FC520;enable-background:new    ;}
	.st18{opacity:6.451600e-02;fill-rule:evenodd;clip-rule:evenodd;fill:#7DC31F;enable-background:new    ;}
	.st19{opacity:9.677400e-02;fill-rule:evenodd;clip-rule:evenodd;fill:#7BC11E;enable-background:new    ;}
	.st20{opacity:0.129;fill-rule:evenodd;clip-rule:evenodd;fill:#78C01E;enable-background:new    ;}
	.st21{opacity:0.1613;fill-rule:evenodd;clip-rule:evenodd;fill:#76BE1D;enable-background:new    ;}
	.st22{opacity:0.1935;fill-rule:evenodd;clip-rule:evenodd;fill:#74BC1C;enable-background:new    ;}
	.st23{opacity:0.2258;fill-rule:evenodd;clip-rule:evenodd;fill:#72BA1B;enable-background:new    ;}
	.st24{opacity:0.2581;fill-rule:evenodd;clip-rule:evenodd;fill:#70B81A;enable-background:new    ;}
	.st25{opacity:0.2903;fill-rule:evenodd;clip-rule:evenodd;fill:#6EB619;enable-background:new    ;}
	.st26{opacity:0.3226;fill-rule:evenodd;clip-rule:evenodd;fill:#6CB518;enable-background:new    ;}
	.st27{opacity:0.3548;fill-rule:evenodd;clip-rule:evenodd;fill:#6AB317;enable-background:new    ;}
	.st28{opacity:0.3871;fill-rule:evenodd;clip-rule:evenodd;fill:#67B117;enable-background:new    ;}
	.st29{opacity:0.4194;fill-rule:evenodd;clip-rule:evenodd;fill:#65AF16;enable-background:new    ;}
	.st30{opacity:0.4516;fill-rule:evenodd;clip-rule:evenodd;fill:#63AD15;enable-background:new    ;}
	.st31{opacity:0.4839;fill-rule:evenodd;clip-rule:evenodd;fill:#61AB14;enable-background:new    ;}
	.st32{opacity:0.5161;fill-rule:evenodd;clip-rule:evenodd;fill:#5FAA13;enable-background:new    ;}
	.st33{opacity:0.5484;fill-rule:evenodd;clip-rule:evenodd;fill:#5DA812;enable-background:new    ;}
	.st34{opacity:0.5806;fill-rule:evenodd;clip-rule:evenodd;fill:#5BA611;enable-background:new    ;}
	.st35{opacity:0.6129;fill-rule:evenodd;clip-rule:evenodd;fill:#59A410;enable-background:new    ;}
	.st36{opacity:0.6452;fill-rule:evenodd;clip-rule:evenodd;fill:#56A210;enable-background:new    ;}
	.st37{opacity:0.6774;fill-rule:evenodd;clip-rule:evenodd;fill:#54A00F;enable-background:new    ;}
	.st38{opacity:0.7097;fill-rule:evenodd;clip-rule:evenodd;fill:#529F0E;enable-background:new    ;}
	.st39{opacity:0.7419;fill-rule:evenodd;clip-rule:evenodd;fill:#509D0D;enable-background:new    ;}
	.st40{opacity:0.7742;fill-rule:evenodd;clip-rule:evenodd;fill:#4E9B0C;enable-background:new    ;}
	.st41{opacity:0.8065;fill-rule:evenodd;clip-rule:evenodd;fill:#4C990B;enable-background:new    ;}
	.st42{opacity:0.8387;fill-rule:evenodd;clip-rule:evenodd;fill:#4A970A;enable-background:new    ;}
	.st43{opacity:0.871;fill-rule:evenodd;clip-rule:evenodd;fill:#489509;enable-background:new    ;}
	.st44{opacity:0.9032;fill-rule:evenodd;clip-rule:evenodd;fill:#459409;enable-background:new    ;}
	.st45{opacity:0.9355;fill-rule:evenodd;clip-rule:evenodd;fill:#439208;enable-background:new    ;}
	.st46{opacity:0.9677;fill-rule:evenodd;clip-rule:evenodd;fill:#419007;enable-background:new    ;}
	.st47{fill-rule:evenodd;clip-rule:evenodd;fill:#4BAF47;}
	.st48{fill:#2D7184;}
	.st49{fill:url(#SVGID_16_);}
	.st50{fill:url(#SVGID_17_);}
	.st51{fill:url(#SVGID_18_);}
	.st52{opacity:0.7;fill:url(#SVGID_19_);enable-background:new    ;}
	.st53{fill:url(#SVGID_20_);}
	.st54{fill:url(#SVGID_21_);}
	.st55{fill:url(#SVGID_22_);}
	.st56{fill:#FFFFFF;}
	.st57{opacity:0.7;}
	.st58{fill:url(#SVGID_23_);}
	.st59{fill:url(#SVGID_24_);}
	.st60{opacity:0.9;}
	.st61{fill:none;}
	.st62{fill:url(#SVGID_25_);}
	.st63{fill:url(#SVGID_26_);}
	.st64{fill:url(#SVGID_27_);}
	.st65{fill:url(#SVGID_28_);}
	.st66{opacity:0.7;fill:url(#SVGID_29_);enable-background:new    ;}
	.st67{fill:url(#SVGID_30_);}
	.st68{fill:url(#SVGID_31_);}
	.st69{fill:url(#SVGID_32_);}
	.st70{fill:url(#SVGID_33_);}
	.st71{fill:url(#SVGID_34_);}
	.st72{fill:url(#SVGID_35_);}
	.st73{fill:url(#SVGID_36_);}
	.st74{fill:url(#SVGID_37_);}
</style>
<g>
	<defs>
		
			<rect id="SVGID_1_" x="-6.2" y="-5.2" transform="matrix(0.2317 -0.9728 0.9728 0.2317 -5.9394 43.0693)" width="61" height="61"/>
	</defs>
	<clipPath id="SVGID_2_">
		<use xlink:href="#SVGID_1_"  style="overflow:visible;"/>
	</clipPath>
	<g class="st0">
		<defs>
			<filter id="Adobe_OpacityMaskFilter" filterUnits="userSpaceOnUse" x="-0.1" y="-4.1" width="48.3" height="57.8">
				<feColorMatrix  type="matrix" values="1 0 0 0 0  0 1 0 0 0  0 0 1 0 0  0 0 0 1 0"/>
			</filter>
		</defs>
		<mask maskUnits="userSpaceOnUse" x="-0.1" y="-4.1" width="48.3" height="57.8" id="mask0_744_8171_1_">
			<path class="st1" d="M28.8-4.1l24.3,36.3l-33,22.7L-4.1,18.6L28.8-4.1z"/>
		</mask>
		<g class="st2">
			<g class="st3">
				
					<radialGradient id="SVGID_3_" cx="-248.093" cy="336.455" r="1.4533" gradientTransform="matrix(3.8078 12.59 16.6292 -5.0294 -4627.5718 4839.625)" gradientUnits="userSpaceOnUse">
					<stop  offset="0" style="stop-color:#8DD41A"/>
					<stop  offset="0.1897" style="stop-color:#85CD19"/>
					<stop  offset="0.4904" style="stop-color:#6EB915"/>
					<stop  offset="0.8625" style="stop-color:#499A0E"/>
					<stop  offset="0.9839" style="stop-color:#3B8E0C"/>
				</radialGradient>
				<path class="st4" d="M44.7,38.1c-0.5-0.3-1.6-0.2-2.1-0.2c-1.1,0-2.1,0-3.1,0c-3.4,0-6.9-0.4-10.3-1c-0.2,0-0.3-0.1-0.5,0
					c-0.3-0.1-0.6-0.1-0.9-0.2c-0.2,0-0.2,0-0.3-0.1c-1.1-0.2-2.2-0.5-3.2-0.7c-0.2,0-0.3-0.1-0.5-0.1c-0.6-0.3-0.9-0.3-1.2-0.5
					c-0.2,0-0.2,0-0.3-0.1c-1.2-0.4-2.4-0.8-3.5-1.1C18.4,34.1,18.2,34,18,34c-0.5-0.2-1.1-0.4-1.6-0.6c-0.1-0.1-0.2-0.1-0.2-0.1
					C1.5,25.8,7.9,13.7,9.6,12.9c0.9,1,8.8,9.6,10,10.5c0.3,0.2,0.5,0.4,0.9,0.7c0.3,0.3,0.7,0.6,1,0.9c0.2,0.1,0.3,0.3,0.5,0.3
					c0.4,0.4,0.7,0.7,1.2,0.9c0.5,0.4,1.2,0.9,1.7,1.4c0.2,0.1,0.3,0.2,0.5,0.3c0.2,0.1,0.3,0.3,0.5,0.3c0.5,0.5,0.9,0.8,1.4,1.1
					c0.3,0.3,0.7,0.5,1,0.8c0.2,0.1,0.4,0.2,0.6,0.4l0.1,0.1c0.2,0.1,0.3,0.2,0.5,0.3c1.2,0.8,2.4,1.6,3.7,2.4
					c0.1,0.1,0.2,0.1,0.3,0.2c0.3,0.1,0.6,0.3,0.8,0.4c0.4,0.1,0.6,0.4,1,0.5c3.1,1.6,6.2,2.9,9.4,3.4C44.5,38,44.5,38,44.7,38.1z"
					/>
				
					<linearGradient id="SVGID_4_" gradientUnits="userSpaceOnUse" x1="20.9855" y1="40.5066" x2="27.7859" y2="13.7344" gradientTransform="matrix(1 0 0 -1 0 52)">
					<stop  offset="0" style="stop-color:#A4A712;stop-opacity:0"/>
					<stop  offset="0.5917" style="stop-color:#9EA50A;stop-opacity:0.5199"/>
					<stop  offset="1" style="stop-color:#98A302;stop-opacity:0.8787"/>
				</linearGradient>
				<path class="st5" d="M44.7,38.1c-0.5-0.3-1.6-0.2-2.1-0.2c-1.1,0-2.1,0-3.1,0c-3.4,0-6.9-0.4-10.3-1c-0.2,0-0.3-0.1-0.5,0
					c-0.3-0.1-0.6-0.1-0.9-0.2c-0.2,0-0.2,0-0.3-0.1c-1.1-0.2-2.2-0.5-3.2-0.7c-0.2,0-0.3-0.1-0.5-0.1c-0.6-0.3-0.9-0.3-1.2-0.5
					c-0.2,0-0.2,0-0.3-0.1c-1.2-0.4-2.4-0.8-3.5-1.1C18.4,34.1,18.2,34,18,34c-0.5-0.2-1.1-0.4-1.6-0.6c-0.1-0.1-0.2-0.1-0.2-0.1
					C1.5,25.8,7.9,13.7,9.6,12.9c0.9,1,8.8,9.6,10,10.5c0.3,0.2,0.5,0.4,0.9,0.7c0.3,0.3,0.7,0.6,1,0.9c0.2,0.1,0.3,0.3,0.5,0.3
					c0.4,0.4,0.7,0.7,1.2,0.9c0.5,0.4,1.2,0.9,1.7,1.4c0.2,0.1,0.3,0.2,0.5,0.3c0.2,0.1,0.3,0.3,0.5,0.3c0.5,0.5,0.9,0.8,1.4,1.1
					c0.3,0.3,0.7,0.5,1,0.8c0.2,0.1,0.4,0.2,0.6,0.4l0.1,0.1c0.2,0.1,0.3,0.2,0.5,0.3c1.2,0.8,2.4,1.6,3.7,2.4
					c0.1,0.1,0.2,0.1,0.3,0.2c0.3,0.1,0.6,0.3,0.8,0.4c0.4,0.1,0.6,0.4,1,0.5c3.1,1.6,6.2,2.9,9.4,3.4C44.5,38,44.5,38,44.7,38.1z"
					/>
				
					<radialGradient id="SVGID_5_" cx="-308.7372" cy="447.0973" r="1.4533" gradientTransform="matrix(-1.8915 1.2223 1.6741 2.5907 -1322.8014 -764.3976)" gradientUnits="userSpaceOnUse">
					<stop  offset="0" style="stop-color:#8DD41A"/>
					<stop  offset="0.1897" style="stop-color:#85CD19"/>
					<stop  offset="0.4904" style="stop-color:#6EB915"/>
					<stop  offset="0.8625" style="stop-color:#499A0E"/>
					<stop  offset="0.9839" style="stop-color:#3B8E0C"/>
				</radialGradient>
				<path class="st6" d="M6.7,19.6c0.1-0.3,0.1-0.7,0.1-1c0.1-0.1,0-0.2,0.1-0.2c0.4-0.6,0.8-1.2,1.3-1.7c0.5-0.5,1.1-0.9,1.6-1.1
					c0.3-0.2,0.5-0.2,0.8-0.3c0.2,0,0.4-0.2,0.7-0.2c0.1-0.1,0.2,0,0.2,0l0.1-0.1c0.1,0.1,0.2,0.3,0.3,0.3l0.1,0.3c0,0,0,0-0.2,0
					c0,0-0.1,0.1-0.2,0c-0.1,0.1-0.2,0-0.2,0c-0.2,0-0.3,0.1-0.6,0.1c-0.2,0-0.4,0.2-0.8,0.3c-0.5,0.2-1.1,0.6-1.6,1
					c-0.5,0.5-1,0.9-1.3,1.6C7,18.9,6.8,19.2,6.7,19.6z"/>
				
					<linearGradient id="SVGID_6_" gradientUnits="userSpaceOnUse" x1="11.4309" y1="37.0812" x2="7.3491" y2="33.2997" gradientTransform="matrix(1 0 0 -1 0 52)">
					<stop  offset="0" style="stop-color:#A4A712;stop-opacity:0"/>
					<stop  offset="0.5917" style="stop-color:#9EA50A;stop-opacity:0.5199"/>
					<stop  offset="1" style="stop-color:#98A302;stop-opacity:0.8787"/>
				</linearGradient>
				<path class="st7" d="M6.7,19.6c0.1-0.3,0.1-0.7,0.1-1c0.1-0.1,0-0.2,0.1-0.2c0.4-0.6,0.8-1.2,1.3-1.7c0.5-0.5,1.1-0.9,1.6-1.1
					c0.3-0.2,0.5-0.2,0.8-0.3c0.2,0,0.4-0.2,0.7-0.2c0.1-0.1,0.2,0,0.2,0l0.1-0.1c0.1,0.1,0.2,0.3,0.3,0.3l0.1,0.3c0,0,0,0-0.2,0
					c0,0-0.1,0.1-0.2,0c-0.1,0.1-0.2,0-0.2,0c-0.2,0-0.3,0.1-0.6,0.1c-0.2,0-0.4,0.2-0.8,0.3c-0.5,0.2-1.1,0.6-1.6,1
					c-0.5,0.5-1,0.9-1.3,1.6C7,18.9,6.8,19.2,6.7,19.6z"/>
				
					<radialGradient id="SVGID_7_" cx="-295.525" cy="401.5688" r="1.4533" gradientTransform="matrix(-3.0483 1.9697 2.6979 4.1751 -1971.178 -1072.038)" gradientUnits="userSpaceOnUse">
					<stop  offset="0" style="stop-color:#8DD41A"/>
					<stop  offset="0.1897" style="stop-color:#85CD19"/>
					<stop  offset="0.4904" style="stop-color:#6EB915"/>
					<stop  offset="0.8625" style="stop-color:#499A0E"/>
					<stop  offset="0.9839" style="stop-color:#3B8E0C"/>
				</radialGradient>
				<path class="st8" d="M9.3,28.1L9.3,28.1c-0.1-0.1-0.1-0.2,0-0.2c0.1-0.3,0.1-0.7,0.1-1c0-0.4,0.1-0.7,0.1-1.2
					c0-0.2,0.1-0.5,0.1-0.6c0-0.2,0.1-0.5,0.1-0.6c0-0.2,0.1-0.4,0.1-0.6l0.1-0.2l0.1-0.3c0.1-0.4,0.3-0.7,0.5-1.2
					c0.1-0.2,0.1-0.4,0.3-0.5c0.1-0.2,0.1-0.4,0.3-0.6c0.1-0.2,0.2-0.3,0.3-0.5c0.2-0.1,0.2-0.3,0.4-0.4c0.2-0.1,0.2-0.3,0.4-0.4
					c0.2-0.1,0.3-0.2,0.5-0.3c0.1-0.1,0.3-0.2,0.4-0.2c0.1-0.1,0.3-0.2,0.4-0.2c0.2-0.1,0.5-0.2,0.7-0.3c0.3-0.1,0.5-0.2,0.5-0.2
					l0.3,0.7c0,0-0.2,0-0.5,0.2c-0.2,0.1-0.3,0.1-0.6,0.3c-0.1,0.1-0.2,0.1-0.4,0.2c-0.1,0.1-0.3,0.2-0.4,0.2
					c-0.1,0.1-0.3,0.2-0.4,0.2c-0.1,0.1-0.3,0.2-0.4,0.4c-0.2,0.1-0.2,0.3-0.4,0.4c-0.2,0.1-0.2,0.3-0.4,0.4
					c-0.2,0.1-0.2,0.3-0.3,0.5c-0.2,0-0.2,0.1-0.3,0.3c-0.1,0.4-0.4,0.7-0.6,1.1l-0.1,0.3L10.3,24c-0.1,0.2-0.1,0.4-0.2,0.5
					c0,0.2-0.1,0.4-0.2,0.5c0,0.2-0.1,0.4-0.1,0.6c-0.1,0.4-0.1,0.8-0.2,1.1c-0.1,0.3-0.1,0.7-0.1,1C9.4,28,9.4,28,9.3,28.1z"/>
				
					<linearGradient id="SVGID_8_" gradientUnits="userSpaceOnUse" x1="15.5986" y1="32.4717" x2="9.1957" y2="26.5402" gradientTransform="matrix(1 0 0 -1 0 52)">
					<stop  offset="0" style="stop-color:#A4A712;stop-opacity:0"/>
					<stop  offset="0.5917" style="stop-color:#9EA50A;stop-opacity:0.5199"/>
					<stop  offset="1" style="stop-color:#98A302;stop-opacity:0.8787"/>
				</linearGradient>
				<path class="st9" d="M9.3,28.1L9.3,28.1c-0.1-0.1-0.1-0.2,0-0.2c0.1-0.3,0.1-0.7,0.1-1c0-0.4,0.1-0.7,0.1-1.2
					c0-0.2,0.1-0.5,0.1-0.6c0-0.2,0.1-0.5,0.1-0.6c0-0.2,0.1-0.4,0.1-0.6l0.1-0.2l0.1-0.3c0.1-0.4,0.3-0.7,0.5-1.2
					c0.1-0.2,0.1-0.4,0.3-0.5c0.1-0.2,0.1-0.4,0.3-0.6c0.1-0.2,0.2-0.3,0.3-0.5c0.2-0.1,0.2-0.3,0.4-0.4c0.2-0.1,0.2-0.3,0.4-0.4
					c0.2-0.1,0.3-0.2,0.5-0.3c0.1-0.1,0.3-0.2,0.4-0.2c0.1-0.1,0.3-0.2,0.4-0.2c0.2-0.1,0.5-0.2,0.7-0.3c0.3-0.1,0.5-0.2,0.5-0.2
					l0.3,0.7c0,0-0.2,0-0.5,0.2c-0.2,0.1-0.3,0.1-0.6,0.3c-0.1,0.1-0.2,0.1-0.4,0.2c-0.1,0.1-0.3,0.2-0.4,0.2
					c-0.1,0.1-0.3,0.2-0.4,0.2c-0.1,0.1-0.3,0.2-0.4,0.4c-0.2,0.1-0.2,0.3-0.4,0.4c-0.2,0.1-0.2,0.3-0.4,0.4
					c-0.2,0.1-0.2,0.3-0.3,0.5c-0.2,0-0.2,0.1-0.3,0.3c-0.1,0.4-0.4,0.7-0.6,1.1l-0.1,0.3L10.3,24c-0.1,0.2-0.1,0.4-0.2,0.5
					c0,0.2-0.1,0.4-0.2,0.5c0,0.2-0.1,0.4-0.1,0.6c-0.1,0.4-0.1,0.8-0.2,1.1c-0.1,0.3-0.1,0.7-0.1,1C9.4,28,9.4,28,9.3,28.1z"/>
				
					<linearGradient id="SVGID_9_" gradientUnits="userSpaceOnUse" x1="20.4284" y1="23.1578" x2="34.9376" y2="31.1686" gradientTransform="matrix(1 0 0 -1 0 52)">
					<stop  offset="0.1527" style="stop-color:#388803"/>
					<stop  offset="0.593" style="stop-color:#81C721"/>
					<stop  offset="0.6859" style="stop-color:#85CA25;stop-opacity:0.9998"/>
					<stop  offset="0.7797" style="stop-color:#90D331;stop-opacity:0.9997"/>
					<stop  offset="0.8739" style="stop-color:#A2E345;stop-opacity:0.9995"/>
					<stop  offset="0.9678" style="stop-color:#BCF862;stop-opacity:0.9994"/>
					<stop  offset="0.9946" style="stop-color:#C5FF6B;stop-opacity:0.9993"/>
				</linearGradient>
				<path class="st10" d="M44.7,37.8c-2.3-0.3-4.7-1.1-7-2.2c-0.4-0.1-0.6-0.4-1-0.5c-1.2-0.6-2.5-1.3-3.8-2.1
					c-0.2,0-0.2-0.1-0.4-0.1c-0.1-0.1-0.2-0.1-0.3-0.2c-0.3-0.2-0.4-0.2-0.6-0.4c-0.9-0.6-1.7-1.2-2.6-1.8c-0.1-0.2-0.3-0.3-0.5-0.4
					L28.4,30c-0.3-0.3-0.7-0.5-1-0.8c-0.6-0.4-1.2-0.8-1.7-1.2c-1.2-0.9-2.3-1.7-3.4-2.7c-0.3-0.2-0.5-0.4-0.8-0.6
					c-0.1-0.1-0.2,0-0.2-0.1c-0.1-0.1-0.1-0.2-0.3-0.2c-1-0.9-2-1.8-3.1-2.8c-0.3-0.2-0.5-0.4-0.8-0.8c-0.2-0.1-8.7-9.3-7.6-8
					c-0.1-0.2,5.1-2.3,5.6-2.5c2.2-0.7,4.7-0.7,7,0c3.5,1.1,6.5,3.8,8.4,6.6c0.1,0.1,0.1,0.1,0.1,0.2c0.2,0.3,0.4,0.6,0.6,0.9
					c0.1,0.1,0.1,0.2,0.2,0.3l0.1,0.1l0.1,0.1c0.6,1.2,1,1.9,1.4,2.6c0.1,0.1,0.1,0.2,0.1,0.2c0.2,0.5,0.6,1.1,0.8,1.6l0.1,0.1
					c0.1,0.1,0.1,0.1,0.1,0.2c0.2,0.5,0.5,0.9,0.7,1.4c0.1,0.1,0.1,0.2,0.2,0.3c0.2,0.5,0.4,0.9,0.7,1.4c0.1,0.1,0.1,0.1,0.1,0.2
					c0.2,0.4,0.4,0.8,0.7,1.2c0.1,0.1,0.1,0.2,0.2,0.3s0.2,0.3,0.2,0.4c0.1,0.1,0.1,0.2,0.2,0.3c0.2,0.3,0.4,0.5,0.6,0.9
					c0.1,0.1,0.1,0.1,0.1,0.2c0.2,0.3,0.4,0.5,0.5,0.8c0.1,0.1,0.1,0.2,0.2,0.3c0.2,0.4,0.4,0.6,0.7,1c0.1,0.1,0.1,0.2,0.2,0.3
					c0.2,0.4,0.5,0.7,0.8,1c0.1,0.2,0.3,0.5,0.5,0.6c0.1,0.1,0.1,0.2,0.2,0.3c0.5,0.5,0.9,1.1,1.4,1.5c0.5,0.5,0.8,1,1.4,1.5
					C43.8,37.1,44.2,37.4,44.7,37.8z"/>
				
					<linearGradient id="SVGID_10_" gradientUnits="userSpaceOnUse" x1="23.639" y1="23.4909" x2="33.0833" y2="28.7495" gradientTransform="matrix(1 0 0 -1 0 52)">
					<stop  offset="0" style="stop-color:#4D830A"/>
					<stop  offset="0.486" style="stop-color:#4E850B;stop-opacity:0.514"/>
					<stop  offset="0.661" style="stop-color:#548C0D;stop-opacity:0.339"/>
					<stop  offset="0.7858" style="stop-color:#5D9711;stop-opacity:0.2142"/>
					<stop  offset="0.8866" style="stop-color:#6AA817;stop-opacity:0.1134"/>
					<stop  offset="0.972" style="stop-color:#7ABE1E;stop-opacity:2.798310e-02"/>
					<stop  offset="1" style="stop-color:#81C721;stop-opacity:0"/>
				</linearGradient>
				<path class="st11" d="M32.8,33.1l-0.2-0.3l-0.2-0.3c0,0,0.1-0.1,0.4-0.2c0.1-0.1,0.3-0.1,0.5-0.2c0.1-0.1,0.2,0,0.3-0.1
					s0.2,0,0.3-0.1c0.2,0,0.6-0.1,0.8-0.2c0.2,0,0.2,0,0.5-0.1c0.2,0,0.3-0.1,0.5-0.1c0.2,0,0.3-0.1,0.5-0.1c0.1-0.1,0.2,0,0.5-0.1
					c0.2,0,0.4,0,0.5-0.1l0.2,0l0.2,0c0.4,0,0.6,0,1,0c0.1,0.1,0.1,0.2,0.2,0.3c-0.1,0.1-0.2,0-0.2,0c-0.4,0-0.6,0-1,0l-0.2,0
					l-0.2,0c-0.2,0-0.3,0.1-0.5,0.1c-0.2,0-0.3,0.1-0.5,0.1c-0.2,0-0.3,0.1-0.5,0.1c-0.2,0-0.3,0.1-0.5,0.1
					c-0.1,0.1-0.3,0.1-0.4,0.2c-0.2,0-0.6,0.1-0.8,0.3c-0.1,0.1-0.2,0-0.3,0.1c-0.1,0.1-0.2,0-0.3,0.1c-0.2,0.1-0.3,0.1-0.5,0.2
					C32.8,33,32.8,33,32.8,33.1C32.9,33.1,32.8,33.1,32.8,33.1z M28.8,29.8c0,0,0.1-0.1,0.2-0.1c0.1-0.1,0.1-0.1,0.2-0.1
					c0.1-0.1,0.3-0.2,0.5-0.3c0.1-0.1,0.2-0.1,0.3-0.2c0.1-0.1,0.2-0.1,0.4-0.2c0.5-0.2,1.2-0.4,1.9-0.5c0.2,0,0.3-0.1,0.6-0.1
					c0.2,0.1,0.4,0.1,0.6,0.1c0.4,0,0.8,0,1.3-0.1c0.4,0,0.8,0,1.2,0c0.3,0.1,0.5,0,0.9,0c-0.1-0.1-0.1-0.2-0.2-0.3
					c-0.2,0-0.5,0-0.8,0C35.4,28,35,28,34.6,28c-0.4,0-0.8,0-1.2-0.1c-0.2,0-0.5,0.1-0.6,0c-0.2,0-0.5,0.1-0.6,0.1
					c-0.7,0.1-1.5,0.3-2.1,0.4c-0.1,0.1-0.3,0.1-0.4,0.2c-0.2,0-0.3,0.1-0.4,0.2c-0.2,0.1-0.4,0.2-0.6,0.3c-0.1,0.1-0.2,0.1-0.2,0.1
					c-0.1,0.1-0.1,0.1-0.2,0.1c-0.1,0.1-0.1,0.1-0.1,0.1l0.5,0.6C28.7,30,28.8,29.9,28.8,29.8z M25.3,26.9c0.2-0.1,0.4-0.2,0.6-0.4
					c0.1-0.1,0.3-0.2,0.4-0.2c0.1-0.1,0.3-0.2,0.5-0.2c0.2-0.1,0.3-0.1,0.5-0.2c0.1-0.1,0.2-0.1,0.3-0.1c0.1-0.1,0.2-0.1,0.3-0.1
					c0,0,0.1-0.1,0.2-0.1c0,0,0.2,0,0.2,0c0.1-0.1,0.2,0,0.3-0.1c0.1-0.1,0.2,0,0.3-0.1c0.1-0.1,0.2,0,0.3-0.1
					c0.1-0.1,0.2,0,0.3-0.1c0.2,0,0.5-0.1,0.7-0.1c0.5-0.1,1-0.1,1.5-0.1c0.5-0.1,1,0,1.5-0.1c0.4,0,0.8,0,1.2,0
					c-0.1-0.1-0.1-0.2-0.2-0.3c-0.2,0-0.6,0-1,0c-0.5-0.1-1-0.1-1.5,0c-0.5,0-1,0-1.5,0.1c-0.2,0-0.5,0.1-0.7,0.1
					c-0.2,0-0.4,0-0.5,0.1c-0.1,0.1-0.2,0-0.3,0.1c-0.1,0.1-0.2,0-0.3,0.1c-0.1,0.1-0.2,0-0.3,0.1c-0.1,0.1-0.2,0-0.3,0.1
					c-0.1,0.1-0.2,0-0.3,0.1c-0.1,0.1-0.2,0-0.3,0.1c-0.1,0.1-0.2,0.1-0.3,0.1c-0.2,0.1-0.4,0.2-0.5,0.2c-0.2,0.1-0.3,0.1-0.5,0.2
					c-0.2,0-0.2,0-0.4,0.2c-0.2,0.1-0.5,0.3-0.7,0.3c-0.4,0.2-0.5,0.4-0.5,0.4l0.5,0.6C24.8,27.3,25,27.2,25.3,26.9z M21.9,24
					c0.2-0.1,0.5-0.3,0.7-0.5c0.2-0.1,0.3-0.2,0.5-0.2c0.2-0.1,0.4-0.2,0.6-0.3c0.2-0.1,0.4-0.2,0.6-0.3c0.1-0.1,0.2-0.1,0.3-0.1
					c0.1-0.1,0.2-0.1,0.3-0.1c0.1-0.1,0.2,0,0.3-0.1c0.1-0.1,0.2,0,0.3-0.1c0.1-0.1,0.2,0,0.3-0.1c0.1-0.1,0.2,0,0.4-0.2
					c0.1-0.1,0.2,0,0.4-0.2c0.1-0.1,0.2,0,0.4-0.2c0.3,0.1,0.6,0,0.9-0.1c0.6-0.1,1.2-0.2,1.8-0.3c0.6,0,1.2-0.2,1.8-0.1
					c0.2,0,0.6,0,0.9-0.1c0.1-0.1,0.2,0,0.2,0C32.7,21,32.7,21,32.7,21l-0.2,0C32.3,21,32,21,31.6,21c-0.6,0-1.2,0-1.8,0.1
					c-0.6,0-1.3,0.1-1.8,0.2c-0.2,0-0.6,0.1-0.8,0.2c-0.2,0-0.3,0.1-0.5,0.1c-0.2,0-0.2,0-0.4,0.2c-0.2,0-0.2,0-0.4,0
					c-0.1,0.1-0.2,0-0.4,0.2c-0.1,0.1-0.2,0-0.3,0.1c-0.1,0.1-0.2,0-0.3,0.1c-0.1,0.1-0.2,0-0.3,0.1c-0.1,0.1-0.2,0-0.3,0.1
					c-0.2,0-0.4,0.2-0.7,0.2c-0.2,0.1-0.4,0.2-0.6,0.3c-0.2,0.1-0.4,0.2-0.5,0.2c-0.5,0.3-0.7,0.5-1,0.5c-0.5,0.3-0.6,0.4-0.6,0.4
					l0.5,0.6C21.3,24.4,21.4,24.3,21.9,24z M18.6,21.5c0.1-0.1,0.2-0.3,0.3-0.5c0.1-0.1,0.1-0.2,0.2-0.3c0.1-0.1,0.1-0.1,0.1-0.2
					c0.1-0.1,0.1-0.1,0.2-0.1c0.1-0.1,0.2-0.3,0.4-0.4c0.2-0.1,0.3-0.2,0.4-0.4c0.2-0.1,0.4-0.2,0.5-0.4c0.2-0.1,0.4-0.2,0.5-0.4
					c0.2-0.1,0.4-0.2,0.7-0.3c0.2-0.1,0.5-0.2,0.7-0.3c0.5-0.2,1.1-0.3,1.6-0.4c0.1-0.1,0.2,0,0.4-0.2c0.1,0.1,0.3,0.1,0.4,0
					c0.2,0,0.6-0.1,0.9-0.1c0.2,0,0.6-0.1,0.8-0.2c0.4,0,0.6,0,0.9-0.1c0.3,0.1,0.6,0,0.9-0.1c0.3,0.1,0.5,0,0.9,0
					c0.3,0.1,0.7,0.1,1.1,0c-0.1-0.1-0.1-0.1-0.1-0.2c-0.3-0.1-0.7-0.1-1-0.1c-0.4,0-0.6,0-0.9,0c-0.2,0-0.5,0-0.9,0.1
					c-0.3-0.1-0.5,0-0.9,0.1c-0.2,0-0.6,0-0.9,0.1c-0.2,0-0.6,0-0.9,0.1c-0.2,0-0.3,0.1-0.5,0.1c-0.2,0-0.2,0-0.5,0.1
					c-0.6,0.1-1.1,0.3-1.7,0.5c-0.2,0-0.4,0.2-0.8,0.3c-0.2,0.1-0.5,0.2-0.7,0.3c-0.2,0.1-0.4,0.2-0.7,0.3c-0.2,0.1-0.4,0.2-0.5,0.4
					c-0.2,0.1-0.4,0.2-0.5,0.4c-0.2,0.1-0.2,0.3-0.4,0.4C18.7,20,18.6,20,18.6,20c-0.1,0.1-0.1,0.1-0.1,0.2
					c-0.1,0.1-0.2,0.3-0.3,0.3c0,0.2-0.1,0.4-0.2,0.4c-0.1,0.1-0.1,0.2-0.1,0.2l0.8,0.4C18.6,21.6,18.5,21.5,18.6,21.5z"/>
				
					<linearGradient id="SVGID_11_" gradientUnits="userSpaceOnUse" x1="27.5102" y1="23.9671" x2="24.0513" y2="16.3242" gradientTransform="matrix(1 0 0 -1 0 52)">
					<stop  offset="0" style="stop-color:#4D830A"/>
					<stop  offset="0.486" style="stop-color:#4E850B;stop-opacity:0.514"/>
					<stop  offset="0.661" style="stop-color:#548C0D;stop-opacity:0.339"/>
					<stop  offset="0.7858" style="stop-color:#5D9711;stop-opacity:0.2142"/>
					<stop  offset="0.8866" style="stop-color:#6AA817;stop-opacity:0.1134"/>
					<stop  offset="0.972" style="stop-color:#7ABE1E;stop-opacity:2.798310e-02"/>
					<stop  offset="1" style="stop-color:#81C721;stop-opacity:0"/>
				</linearGradient>
				<path class="st12" d="M16.5,33.1C16.5,33,16.3,33,16.3,33c-0.1-0.2-0.2-0.3-0.2-0.5c-0.1-0.2-0.2-0.5-0.2-0.8
					c0-0.2-0.2-0.5-0.2-0.8c-0.1-0.1,0-0.2-0.2-0.4c-0.1-0.1,0-0.2-0.2-0.4c0-0.2-0.1-0.5-0.1-0.7c0-0.2-0.1-0.6-0.2-0.8
					c0-0.2,0-0.2,0-0.4c-0.1-0.1,0-0.2,0-0.4c0-0.2,0-0.6,0-0.8c0-0.2,0-0.2,0-0.4c0-0.2,0.1-0.3,0-0.4c0-0.2,0.1-0.3,0.1-0.3
					c0.1-0.2,0.1-0.2,0.1-0.4c0.1-0.3,0.2-0.5,0.2-0.7c0.1-0.3,0.2-0.5,0.2-0.7c0.1-0.1,0.1-0.2,0.2-0.3c0.1-0.1,0.1-0.2,0.2-0.3
					c0.1-0.1,0.1-0.2,0.1-0.2c0-0.2,0.1-0.2,0.1-0.3c0.2-0.1,0.3-0.3,0.4-0.4c0.2-0.3,0.4-0.6,0.6-0.7c0.3-0.3,0.6-0.5,0.6-0.5
					l0.5,0.6c0,0-0.2,0.1-0.6,0.5c-0.2,0.1-0.3,0.3-0.6,0.5c-0.1,0.1-0.2,0.3-0.3,0.3c-0.1,0.1-0.2,0.1-0.1,0.2
					c-0.1,0.1-0.1,0.2-0.1,0.2c-0.1,0.1-0.1,0.2-0.1,0.2c-0.2,0.1-0.2,0.3-0.3,0.3c0,0.2-0.1,0.4-0.3,0.6c0,0.2-0.1,0.4-0.1,0.6
					c0,0.2-0.1,0.2-0.1,0.4c0,0.2,0,0.2-0.1,0.3c0,0.2-0.1,0.3-0.1,0.4c0.1,0.1,0,0.2,0,0.4c0,0.2,0,0.6-0.1,0.7c0,0.2,0,0.2,0,0.4
					c0,0.2,0,0.2,0,0.4c0.1,0.3,0.1,0.6,0.2,0.8c0,0.2,0,0.6,0.1,0.7c0.1,0.1,0,0.2,0.1,0.3c0.1,0.1,0,0.2,0.1,0.3
					c0.1,0.5,0.1,0.7,0.2,0.9c0,0.2,0.2,0.5,0.2,0.8C16.4,32.7,16.5,32.9,16.5,33.1z M22.6,34.8c-0.2-0.4-0.3-0.9-0.5-1.3
					c0-0.2-0.1-0.5-0.2-0.7c0-0.2-0.1-0.5-0.1-0.7c0-0.4-0.1-0.9-0.1-1.4c-0.1-0.1,0-0.2-0.1-0.3c0-0.2,0-0.2,0-0.4l0-0.2
					c0-0.2,0-0.2,0.1-0.3c0-0.2,0-0.2,0.1-0.3c-0.1-0.2-0.1-0.3-0.1-0.3c0-0.2,0-0.4,0-0.6c0-0.2,0-0.4,0-0.6
					c0.1-0.2,0.1-0.4,0.2-0.5c0-0.2,0.1-0.3,0.1-0.5c0-0.2,0.1-0.3,0.1-0.5c0-0.2,0-0.4,0.1-0.6c0-0.2,0.1-0.3,0.1-0.4
					c0-0.2,0.1-0.2,0.1-0.2l-0.5-0.2l-0.5-0.1c0,0,0,0.2-0.1,0.6c0,0.2,0,0.4-0.1,0.7c0,0.2-0.1,0.3-0.1,0.5c0,0.2-0.1,0.3,0,0.6
					c0,0.2-0.1,0.3-0.1,0.5c0,0.2,0,0.4,0,0.6c0,0.2,0,0.4,0,0.6c0,0,0,0.2,0,0.2c0.1,0.1,0,0.2,0,0.4c0.1,0.1,0,0.2,0,0.4
					c0.1,0.1,0,0.2,0.1,0.3c-0.1-0.1-0.1,0.1,0,0.2c0.1,0.1,0,0.2,0.1,0.3c0.1,0.5,0.1,1,0.3,1.4c-0.1,0.3,0.1,0.5,0.1,0.7
					c0,0.2,0.1,0.5,0.2,0.7c0.2,0.4,0.2,0.9,0.5,1.3c0.1,0.1,0.1,0.2,0.1,0.3c0.1,0.1,0.2,0,0.3,0.1C22.6,35.1,22.5,35,22.6,34.8z
					 M27.6,36.2c-0.1-0.3-0.3-0.7-0.4-1c-0.2-0.4-0.3-0.7-0.5-1.1c-0.1-0.2-0.1-0.3-0.1-0.6c0-0.2-0.1-0.3-0.1-0.6
					c0-0.2-0.1-0.3-0.1-0.6c-0.1-0.1-0.1-0.3-0.2-0.4c0-0.2-0.1-0.3-0.1-0.5c0-0.2,0-0.4,0-0.6c0-0.2-0.1-0.3-0.1-0.5
					c0-0.2,0-0.2,0-0.4c0-0.2,0-0.6,0-0.8c0-0.2,0-0.2,0.1-0.3c0-0.2,0-0.2,0.1-0.3c-0.1-0.1-0.1-0.1-0.1-0.2c0-0.2,0.1-0.3,0.1-0.3
					l-0.5,0l-0.2,0c0,0,0,0.2,0,0.6c0,0,0.1,0.1,0.1,0.2c0.1,0.1,0,0.2,0,0.4c0,0.2,0.1,0.5,0,0.8c0.1,0.1,0,0.2,0,0.4
					c0.1,0.2,0.1,0.3,0.1,0.5c0,0.2,0.1,0.3,0.1,0.6c0,0.2,0.1,0.3,0.1,0.6c0,0.2,0.1,0.3,0.1,0.6c0,0.2,0.1,0.3,0.1,0.6
					c0.1,0.1,0.2,0.3,0.2,0.5c0.1,0.1,0.1,0.3,0.2,0.5c0.2,0.4,0.3,0.7,0.5,1.1c0.2,0.4,0.3,0.7,0.6,1.1c0.1,0.1,0.1,0.1,0.1,0.2
					c0.2,0,0.2,0,0.3,0.1C27.7,36.4,27.6,36.3,27.6,36.2z M31.9,36.6c-0.1-0.2-0.2-0.3-0.3-0.5c-0.1-0.2-0.2-0.3-0.3-0.5
					c-0.1-0.2-0.2-0.3-0.3-0.5c-0.1-0.2-0.1-0.3-0.2-0.5c-0.1-0.2-0.2-0.3-0.2-0.5c-0.1-0.1-0.1-0.3-0.2-0.4
					c-0.1-0.1-0.1-0.3-0.2-0.4c-0.1-0.1-0.1-0.1-0.1-0.2c-0.1-0.1-0.1-0.1,0-0.2c0-0.2-0.1-0.5-0.1-0.7c-0.1-0.2-0.2-0.4-0.2-0.7
					c-0.1-0.2-0.1-0.3-0.1-0.6l-0.1-0.1c0-0.2-0.1-0.3-0.1-0.3l-0.3,0.1l-0.4,0c0,0,0.1,0.1,0.2,0.4c0.1,0.1,0.1,0.3,0.2,0.5
					c0,0.2,0.2,0.4,0.2,0.7c0.1,0.3,0.1,0.6,0.2,0.9c0.1,0.1,0.1,0.1,0.1,0.2c0.1,0.1,0.1,0.1,0.1,0.2c0.1,0.1,0.1,0.3,0.2,0.4
					c0.1,0.2,0.2,0.3,0.2,0.5c0.1,0.2,0.2,0.3,0.3,0.5c0.1,0.2,0.2,0.3,0.3,0.5c0.1,0.2,0.2,0.3,0.3,0.5c0.1,0.2,0.2,0.3,0.3,0.5
					c0.1,0.2,0.2,0.3,0.3,0.5c0.1,0.2,0.2,0.3,0.3,0.5c0,0,0.2,0,0.3,0.1C32.2,37,32.1,36.8,31.9,36.6z M36.3,37.4
					c-0.1-0.1-0.2-0.1-0.3-0.2c-0.2-0.1-0.4-0.4-0.5-0.6c-0.1-0.1-0.1-0.2-0.2-0.4c-0.1-0.1-0.1-0.2-0.2-0.3
					c-0.1-0.2-0.3-0.5-0.4-0.6c-0.1-0.2-0.2-0.4-0.4-0.5l-0.1-0.1l-0.1-0.1c-0.1-0.1-0.1-0.2-0.2-0.3c-0.1-0.2-0.2-0.3-0.2-0.4
					c-0.1-0.1-0.1-0.3-0.2-0.4l-0.1-0.1c-0.1-0.1,0-0.2,0-0.2l-0.2,0l-0.5,0.1c0,0,0.1,0.1,0.1,0.3c0.1,0.1,0.1,0.2,0.2,0.4
					c0.1,0.1,0.2,0.3,0.3,0.5c0.1,0.1,0.1,0.2,0.2,0.3c0.1,0.1,0.1,0.1,0.1,0.2c0.1,0.1,0.1,0.1,0.1,0.2c0.1,0.2,0.2,0.4,0.4,0.6
					c0.1,0.2,0.3,0.5,0.5,0.6c0.1,0.1,0.1,0.2,0.3,0.3c0.1,0.1,0.1,0.2,0.3,0.3c0.2,0.1,0.4,0.4,0.6,0.5c0.1,0.1,0.1,0.1,0.2,0.1
					c0.2,0,0.3,0.1,0.5,0.1C36.4,37.6,36.4,37.5,36.3,37.4z"/>
				
					<linearGradient id="SVGID_12_" gradientUnits="userSpaceOnUse" x1="15.8637" y1="39.8968" x2="22.447" y2="34.8035" gradientTransform="matrix(1 0 0 -1 0 52)">
					<stop  offset="0" style="stop-color:#4D830A"/>
					<stop  offset="0.486" style="stop-color:#4E850B;stop-opacity:0.514"/>
					<stop  offset="0.661" style="stop-color:#548C0D;stop-opacity:0.339"/>
					<stop  offset="0.7858" style="stop-color:#5D9711;stop-opacity:0.2142"/>
					<stop  offset="0.8866" style="stop-color:#6AA817;stop-opacity:0.1134"/>
					<stop  offset="0.972" style="stop-color:#7ABE1E;stop-opacity:2.798310e-02"/>
					<stop  offset="1" style="stop-color:#81C721;stop-opacity:0"/>
				</linearGradient>
				<path class="st13" d="M13.9,17.6c0,0,0.2-0.1,0.4-0.4c0.2-0.1,0.3-0.3,0.5-0.5c0.2-0.1,0.5-0.3,0.7-0.6c0.3-0.2,0.5-0.4,0.8-0.6
					c0.2-0.1,0.3-0.2,0.5-0.3c0.2-0.1,0.4-0.2,0.5-0.3c0.4-0.2,0.7-0.3,1.1-0.5c0.2-0.1,0.4-0.2,0.6-0.3l0.3-0.1l0.3-0.1
					c0.4-0.2,0.8-0.3,1.2-0.3c0.4-0.2,0.8-0.2,1.2-0.3c0.8-0.2,1.5-0.3,2.3-0.3c0.6,0,1.2,0,1.6,0c0.4,0.1,0.6,0.1,0.6,0.1
					s-0.2,0-0.5,0c-0.4,0-0.9,0-1.6,0c-0.7,0.1-1.5,0.1-2.3,0.4c-0.3,0.1-0.8,0.2-1.2,0.3c-0.4,0.2-0.8,0.3-1.2,0.4l-0.3,0.1
					l-0.3,0.2c-0.2,0.1-0.4,0.2-0.6,0.3c-0.4,0.2-0.7,0.3-1.1,0.6c-0.2,0.1-0.3,0.2-0.5,0.3c-0.2,0.1-0.3,0.2-0.5,0.3
					c-0.3,0.2-0.5,0.4-0.8,0.7c-0.3,0.2-0.4,0.4-0.6,0.5c-0.2,0.1-0.3,0.3-0.5,0.5c-0.2,0.3-0.4,0.4-0.4,0.4L13.9,17.6z M12.8,16.3
					c0-0.2,0-0.2,0.1-0.3c0-0.2,0.1-0.4,0.2-0.7c0,0,0-0.2,0.1-0.2c0.1-0.1,0-0.2,0.1-0.2c0-0.2,0.1-0.2,0.2-0.4
					c0.2-0.3,0.3-0.6,0.6-0.9c0.1-0.1,0.1-0.2,0.1-0.2c0.1-0.1,0.1-0.2,0.2-0.3c0.1-0.1,0.1-0.2,0.2-0.3c0.1-0.1,0.1-0.2,0.2-0.3
					c0.1-0.1,0.1-0.2,0.2-0.3c0.1-0.1,0.2-0.1,0.2-0.3c0.1-0.1,0.2-0.1,0.2-0.3c0.1-0.1,0.2-0.1,0.3-0.2c0.2,0,0.5-0.3,0.8-0.6
					c0.2-0.1,0.4-0.2,0.5-0.4c0.2-0.1,0.4-0.2,0.6-0.3c0.1-0.1,0.2-0.1,0.3-0.2c0.1-0.1,0.2-0.1,0.3-0.1l0.1-0.1
					c-0.2,0-0.5,0.1-0.8,0C17.5,10,17.5,10,17.4,10c-0.2,0.1-0.4,0.2-0.6,0.3c-0.2,0.1-0.4,0.2-0.5,0.4c-0.4,0.2-0.8,0.6-1.2,0.8
					c-0.1,0.1-0.2,0.1-0.3,0.2c-0.1,0.1-0.2,0.1-0.3,0.2c-0.1,0.1-0.2,0.1-0.3,0.2c-0.1,0.1-0.2,0.1-0.2,0.3
					c-0.1,0.1-0.2,0.1-0.2,0.3c0.2,0,0.1,0.1,0,0.2c-0.1,0.1-0.1,0.2-0.2,0.3c-0.1,0.1-0.1,0.2-0.2,0.3c-0.2,0.3-0.4,0.6-0.6,0.9
					c0,0.2-0.2,0.3-0.2,0.4c-0.1,0.1,0,0.2-0.1,0.2c-0.1,0.1,0,0.2-0.1,0.2c-0.1,0.2-0.2,0.4-0.3,0.6c0,0,0,0-0.1,0.1
					C12.4,15.9,12.5,16.1,12.8,16.3z"/>
				
					<linearGradient id="SVGID_13_" gradientUnits="userSpaceOnUse" x1="13.5044" y1="30.4103" x2="7.1285" y2="30.6133" gradientTransform="matrix(1 0 0 -1 0 52)">
					<stop  offset="0" style="stop-color:#4D830A"/>
					<stop  offset="0.486" style="stop-color:#4E850B;stop-opacity:0.514"/>
					<stop  offset="0.661" style="stop-color:#548C0D;stop-opacity:0.339"/>
					<stop  offset="0.7858" style="stop-color:#5D9711;stop-opacity:0.2142"/>
					<stop  offset="0.8866" style="stop-color:#6AA817;stop-opacity:0.1134"/>
					<stop  offset="0.972" style="stop-color:#7ABE1E;stop-opacity:2.798310e-02"/>
					<stop  offset="1" style="stop-color:#81C721;stop-opacity:0"/>
				</linearGradient>
				<path class="st14" d="M7.2,18.6C7.6,18,8,17.5,8.5,17c0.5-0.5,1.1-0.7,1.6-1c0.2,0,0.5-0.2,0.8-0.3c0.2,0,0.4-0.2,0.6-0.1
					c0.1-0.1,0.2,0,0.2,0l0.2,0c0.1-0.1,0.2,0,0.2,0l-0.1-0.3L11.8,15c0,0,0,0-0.2,0c0,0,0,0-0.1,0.1l-0.1,0.1c-0.1,0.1-0.2,0-0.2,0
					c-0.2,0-0.3,0.1-0.7,0.2c-0.3-0.1-0.5,0.1-0.8,0.2c-0.5,0.2-1.1,0.7-1.6,1.1c-0.5,0.5-1,1.1-1.3,1.7c-0.1,0.1,0,0.2-0.1,0.2
					l-0.1,1C6.8,19.2,7,18.9,7.2,18.6z M9.4,27.8c0.1-0.3,0.1-0.6,0.1-1c0.1-0.3,0.1-0.8,0.2-1.1c0-0.2,0.1-0.4,0.1-0.6
					c0-0.2,0.1-0.4,0.2-0.5c0-0.2,0.1-0.4,0.2-0.5l0.1-0.3l0.1-0.2c0.1-0.4,0.3-0.7,0.6-1.1c0.1-0.2,0.2-0.3,0.3-0.5
					c0.1-0.2,0.2-0.3,0.3-0.5c0.2-0.1,0.2-0.3,0.4-0.4c0.2-0.1,0.2-0.3,0.4-0.4c0.2-0.1,0.3-0.2,0.4-0.4c0.2-0.1,0.3-0.2,0.4-0.2
					c0.1-0.1,0.3-0.2,0.4-0.2c0.1-0.1,0.2-0.1,0.4-0.2c0.2-0.1,0.4-0.2,0.6-0.3c0.3-0.1,0.6-0.1,0.6-0.1l-0.3-0.7
					c0,0-0.2,0.1-0.5,0.2c-0.2,0.1-0.4,0.2-0.7,0.3c-0.1,0.1-0.3,0.2-0.4,0.2c-0.1,0.1-0.3,0.2-0.4,0.2c-0.2,0.1-0.3,0.2-0.5,0.3
					c-0.2,0.1-0.3,0.2-0.4,0.4c-0.2,0.1-0.2,0.3-0.4,0.4c-0.2,0.1-0.2,0.3-0.3,0.5c-0.1,0.2-0.1,0.4-0.3,0.6
					c-0.2,0.1-0.2,0.3-0.3,0.5c-0.1,0.4-0.4,0.8-0.5,1.2L10,23.6L10,23.9c0,0.2-0.1,0.4-0.1,0.6c0,0.2-0.1,0.5-0.1,0.6
					c0,0.2-0.1,0.5-0.1,0.6c0,0.4-0.1,0.8-0.1,1.2C9.4,27.2,9.3,27.5,9.4,27.8c-0.1,0.1-0.1,0.1-0.2,0.1L9.3,28
					C9.4,28,9.4,28,9.4,27.8z"/>
				
					<radialGradient id="SVGID_14_" cx="-309.7969" cy="320.5207" r="1.4533" gradientTransform="matrix(-5.9167 -8.8203 -11.3159 7.5908 1820.879 -5139.749)" gradientUnits="userSpaceOnUse">
					<stop  offset="0" style="stop-color:#52780D"/>
					<stop  offset="0.6108" style="stop-color:#50790D;stop-opacity:0.4609"/>
					<stop  offset="0.8306" style="stop-color:#497B0D;stop-opacity:0.2669"/>
					<stop  offset="0.9624" style="stop-color:#407E0D;stop-opacity:0.1506"/>
				</radialGradient>
				<path class="st15" d="M9.6,13c1.1,1.5,2.3,2.7,3.6,4c1.2,1.3,2.6,2.5,3.9,3.7c2.7,2.5,5.4,4.9,8.2,7.1c1.4,1.1,2.9,2.3,4.3,3.3
					c1.5,1,3,2.1,4.6,2.9c3.1,1.9,6.4,3.3,10,3.9c-3.6-0.4-7-2-10.1-3.7c-1.6-0.9-3.2-1.8-4.6-2.8c-1.6-1-3.1-2-4.5-3.2
					c-2.9-2.3-5.6-4.6-8.3-7.1c-1.3-1.2-2.7-2.4-4-3.8c-1.2-1.3-2.6-2.6-3.7-4L9.6,13z"/>
				
					<radialGradient id="SVGID_15_" cx="-309.7915" cy="320.5121" r="1.4533" gradientTransform="matrix(-5.9177 -8.8217 -11.3178 7.592 1821.4573 -5140.687)" gradientUnits="userSpaceOnUse">
					<stop  offset="0" style="stop-color:#84D132"/>
					<stop  offset="0.5462" style="stop-color:#82CF31;stop-opacity:0.8361"/>
					<stop  offset="0.743" style="stop-color:#7DC82E;stop-opacity:0.7771"/>
					<stop  offset="0.8827" style="stop-color:#73BD29;stop-opacity:0.7352"/>
					<stop  offset="0.9954" style="stop-color:#66AC21;stop-opacity:0.7014"/>
					<stop  offset="1" style="stop-color:#65AB21;stop-opacity:0.7"/>
				</radialGradient>
				<path class="st16" d="M10,12.8c1.1,1.5,2.3,2.7,3.6,4c1.2,1.3,2.6,2.5,3.9,3.7c2.7,2.5,5.4,4.9,8.2,7.1c1.4,1.1,2.8,2.2,4.3,3.3
					c1.5,1,3,2.1,4.6,2.9c3.1,1.9,6.4,3.3,10,3.9c-3.6-0.4-7-2-10.2-3.6c-1.6-0.9-3.2-1.8-4.6-2.8c-1.5-0.9-3-2.1-4.4-3.2
					c-2.9-2.3-5.6-4.6-8.3-7.1c-1.3-1.2-2.7-2.4-4-3.8c-1.2-1.3-2.6-2.6-3.7-4L10,12.8z"/>
				<path class="st17" d="M22.7,29.8c-0.2-0.3-0.3-1,0.1-1.3c0.4-0.2,1.2,0,1.4,0.3c0.1,0.1,0.6,0.7-0.2,1.1
					C23.7,30.2,23,30.2,22.7,29.8z"/>
				<path class="st18" d="M22.7,29.8c-0.2-0.3-0.3-1,0.1-1.3c0.4-0.2,1.2,0,1.3,0.4c0.1,0.1,0.6,0.7-0.2,1.1
					C23.7,30.2,23,30.2,22.7,29.8z"/>
				<path class="st19" d="M22.7,29.8c-0.2-0.3-0.3-1,0.1-1.3c0.4-0.2,1.2,0,1.3,0.4c0.1,0.1,0.5,0.6-0.2,1.1
					C23.7,30.2,23.1,30.2,22.7,29.8z"/>
				<path class="st20" d="M22.7,29.8c-0.2-0.3-0.3-1,0.1-1.3c0.4-0.2,1.2,0,1.3,0.3c0.1,0.1,0.5,0.6-0.2,1.1
					C23.7,30.2,23.1,30.2,22.7,29.8z"/>
				<path class="st21" d="M22.7,29.8c-0.2-0.3-0.3-1,0.1-1.3c0.4-0.2,1.1-0.1,1.3,0.3c0.1,0.2,0.5,0.6-0.2,1.1
					C23.7,30.2,23.1,30.2,22.7,29.8z"/>
				<path class="st22" d="M22.8,29.7c-0.2-0.3-0.3-1,0.1-1.2c0.3-0.2,0.9,0,1.2,0.4c0.1,0.2,0.5,0.6-0.1,1
					C23.7,30.2,23.1,30.2,22.8,29.7z"/>
				<path class="st23" d="M22.9,29.8c-0.2-0.3-0.2-0.9,0.1-1.1c0.3-0.3,1-0.1,1.2,0.2c0.1,0.2,0.4,0.6-0.1,1
					C23.7,30.2,23.1,30.2,22.9,29.8z"/>
				<path class="st24" d="M22.9,29.8c-0.2-0.3-0.2-0.9,0.1-1.1c0.4-0.2,1,0,1.2,0.2c0.1,0.2,0.4,0.6-0.1,1
					C23.7,30.2,23.1,30.2,22.9,29.8z"/>
				<path class="st25" d="M22.9,29.8c-0.2-0.3-0.2-0.9,0.1-1.1c0.4-0.2,1,0,1.2,0.2c0.1,0.2,0.4,0.6-0.1,1
					C23.7,30.2,23.1,30.2,22.9,29.8z"/>
				<path class="st26" d="M22.9,29.8c-0.2-0.3-0.2-0.9,0.1-1.1c0.4-0.2,1,0,1.2,0.2c0.1,0.2,0.4,0.6-0.1,1
					C23.7,30.2,23.2,30.1,22.9,29.8z"/>
				<path class="st27" d="M22.9,29.8c-0.2-0.3-0.2-0.9,0.1-1.1c0.4-0.2,1,0,1.2,0.2c0.1,0.2,0.4,0.6-0.2,0.9
					C23.7,30.2,23.2,30.1,22.9,29.8z"/>
				<path class="st28" d="M23,29.7c-0.2-0.3-0.2-0.9,0.1-1c0.4-0.2,0.9,0,1.1,0.3c0.1,0.2,0.4,0.5-0.2,0.9
					C23.7,30.2,23.2,30.1,23,29.7z"/>
				<path class="st29" d="M23,29.7c-0.2-0.3-0.2-0.8,0.1-1c0.4-0.2,0.9-0.1,1.1,0.3c0.1,0.2,0.4,0.5-0.2,0.9
					C23.8,30.1,23.2,30.1,23,29.7z"/>
				<path class="st30" d="M23,29.7c-0.2-0.3-0.2-0.8,0.1-1c0.3-0.2,0.9-0.1,1.1,0.3c0.1,0.2,0.4,0.5-0.1,0.9
					C23.8,30.1,23.2,30.1,23,29.7z"/>
				<path class="st31" d="M23,29.7c-0.2-0.3-0.2-0.8,0-0.9c0.3-0.2,0.9-0.1,1.1,0.2c0.1,0.2,0.4,0.5-0.1,0.9
					C23.8,30.1,23.2,30.1,23,29.7z"/>
				<path class="st32" d="M23,29.8c-0.2-0.3-0.2-0.8,0-0.9c0.3-0.2,0.9-0.1,1,0.3c0.1,0.2,0.4,0.5-0.1,0.9
					C23.8,30.1,23.2,30.1,23,29.8z"/>
				<path class="st33" d="M23,29.8c-0.2-0.3-0.2-0.8,0-0.9c0.3-0.2,0.8,0,1,0.3c0.1,0.2,0.4,0.5-0.1,0.9C23.8,30.1,23.3,30,23,29.8z
					"/>
				<path class="st34" d="M23,29.8c-0.2-0.3-0.2-0.8,0.1-0.9c0.3-0.2,0.8,0,1,0.3c0.1,0.2,0.4,0.5-0.1,0.9
					C23.8,30.1,23.3,30,23,29.8z"/>
				<path class="st35" d="M23.1,29.8c-0.3-0.2-0.2-0.7,0.1-0.9c0.3-0.2,0.8,0,1,0.3c0.1,0.2,0.4,0.5-0.1,0.9
					C23.8,30.1,23.3,30,23.1,29.8z"/>
				<path class="st36" d="M23.1,29.8c-0.3-0.2-0.2-0.7,0.1-0.9c0.3-0.2,0.8,0,0.9,0.2c0.1,0.2,0.3,0.6-0.1,0.8
					C23.8,30.1,23.3,30,23.1,29.8z"/>
				<path class="st37" d="M23.1,29.8c-0.1-0.2-0.2-0.7,0.1-0.9c0.3-0.2,0.7-0.1,0.9,0.2c0.1,0.2,0.3,0.6-0.1,0.8
					C23.8,30.1,23.3,30,23.1,29.8z"/>
				<path class="st38" d="M23.1,29.8c-0.1-0.2-0.2-0.7,0.1-0.8c0.3-0.2,0.7-0.1,0.9,0.2c0.1,0.2,0.2,0.5-0.1,0.8
					C23.8,30.1,23.3,30,23.1,29.8z"/>
				<path class="st39" d="M23.1,29.8c-0.2-0.3-0.2-0.7,0.1-0.9c0.3-0.2,0.6,0,0.8,0.2c0.1,0.2,0.2,0.5-0.1,0.7
					C23.8,30.1,23.4,30.1,23.1,29.8z"/>
				<path class="st40" d="M23.2,29.9c-0.2-0.3-0.2-0.7,0.1-0.7c0.3-0.2,0.6,0,0.8,0.2c0.1,0.2,0.2,0.5-0.1,0.7
					C23.8,30.1,23.5,30.1,23.2,29.9z"/>
				<path class="st41" d="M23.2,29.9c-0.2-0.3-0.1-0.6,0.1-0.7c0.3-0.2,0.6,0,0.8,0.2c0.1,0.2,0.2,0.5-0.1,0.7
					C23.8,30.1,23.5,30.1,23.2,29.9z"/>
				<path class="st42" d="M23.3,29.8c-0.2-0.3-0.1-0.6,0.1-0.7c0.3-0.2,0.6,0,0.8,0.1c0.1,0.2,0.2,0.5-0.1,0.7
					C23.8,30.1,23.5,30.1,23.3,29.8z"/>
				<path class="st43" d="M23.3,29.8c-0.2-0.3-0.1-0.6,0.1-0.7c0.2-0.1,0.6,0,0.8,0.1c0.1,0.2,0.2,0.5-0.1,0.7
					C23.8,30.1,23.5,30.1,23.3,29.8z"/>
				<path class="st44" d="M23.3,29.8c-0.2-0.3-0.1-0.6,0.1-0.7c0.2-0.1,0.6-0.1,0.8,0.1c0.1,0.2,0.2,0.5-0.1,0.7
					C23.8,30.1,23.5,30.1,23.3,29.8z"/>
				<path class="st45" d="M23.3,29.8c-0.2-0.3-0.1-0.6,0.1-0.7c0.2-0.1,0.5-0.1,0.8,0.1c0.1,0.2,0.2,0.5-0.1,0.7
					C23.8,30.1,23.5,30.1,23.3,29.8z"/>
				<path class="st46" d="M23.3,29.8c-0.1-0.2-0.2-0.5,0.1-0.6c0.2-0.1,0.5-0.1,0.7,0.2c0.1,0.2,0.2,0.4-0.1,0.6
					C23.8,30.1,23.5,30.1,23.3,29.8z"/>
				<path class="st47" d="M23.3,29.8c-0.1-0.2-0.2-0.4,0.1-0.6c0.2-0.1,0.5-0.1,0.7,0.2c0.1,0.2,0.2,0.4-0.1,0.6
					C23.9,30.1,23.6,30,23.3,29.8z"/>
				<path class="st48" d="M23.2,29.9c-0.4-0.4,0.5-1.2,0.9-0.6c0.1,0.1,0.1,0.2,0.1,0.3l0,0.2c0,0.2-0.1,0.2-0.2,0.3
					c-0.2,0.1-0.3,0.1-0.5,0C23.3,29.9,23.2,30,23.2,29.9z"/>
				
					<radialGradient id="SVGID_16_" cx="-433.4784" cy="1014.3832" r="1.4533" gradientTransform="matrix(-0.4188 0.2706 0.2991 0.4628 -461.6933 -322.2512)" gradientUnits="userSpaceOnUse">
					<stop  offset="3.225810e-02" style="stop-color:#C7E2ED"/>
					<stop  offset="0.768" style="stop-color:#A6C7E0"/>
					<stop  offset="1" style="stop-color:#9ABDDB"/>
				</radialGradient>
				<path class="st49" d="M23.2,30c-0.3-0.5,0.5-1.2,0.9-0.6c0.1,0.1,0.1,0.2,0.1,0.3l0,0.2c0,0.2-0.1,0.2-0.2,0.3
					c-0.2,0.1-0.4,0-0.6-0.1C23.3,29.9,23.2,30,23.2,30z"/>
				
					<radialGradient id="SVGID_17_" cx="-498.5003" cy="1249.197" r="1.4533" gradientTransform="matrix(-0.2975 0.1923 0.223 0.3451 -403.5993 -305.2872)" gradientUnits="userSpaceOnUse">
					<stop  offset="0.2903" style="stop-color:#C6E1ED;stop-opacity:3.997700e-02"/>
					<stop  offset="0.4766" style="stop-color:#9FC4D9;stop-opacity:0.3568"/>
					<stop  offset="0.8548" style="stop-color:#4581AD"/>
					<stop  offset="0.9163" style="stop-color:#4485B3;stop-opacity:0.7036"/>
					<stop  offset="0.9966" style="stop-color:#4190C3;stop-opacity:0.3165"/>
					<stop  offset="1" style="stop-color:#4191C4;stop-opacity:0.3"/>
				</radialGradient>
				<path class="st50" d="M23.2,30c-0.3-0.5,0.5-1.2,0.9-0.6c0.1,0.1,0.1,0.2,0.1,0.3l0,0.2c0,0.2-0.1,0.2-0.2,0.3
					c-0.2,0.1-0.4,0-0.6-0.1C23.3,29.9,23.2,30,23.2,30z"/>
				
					<linearGradient id="SVGID_18_" gradientUnits="userSpaceOnUse" x1="24.0053" y1="21.8425" x2="23.4096" y2="22.8328" gradientTransform="matrix(1 0 0 -1 0 52)">
					<stop  offset="0.4785" style="stop-color:#C6E1ED;stop-opacity:3.997700e-02"/>
					<stop  offset="0.5658" style="stop-color:#D2E7F1;stop-opacity:0.2007"/>
					<stop  offset="0.8462" style="stop-color:#F3F8FB;stop-opacity:0.7169"/>
					<stop  offset="1" style="stop-color:#FFFFFF"/>
				</linearGradient>
				<path class="st51" d="M23.2,30c-0.3-0.5,0.5-1.2,0.9-0.6c0.1,0.1,0.1,0.2,0.1,0.3l0,0.2c0,0.2-0.1,0.2-0.2,0.3
					c-0.2,0.1-0.4,0-0.6-0.1C23.3,29.9,23.2,30,23.2,30z"/>
				
					<linearGradient id="SVGID_19_" gradientUnits="userSpaceOnUse" x1="23.2623" y1="22.1787" x2="24.0255" y2="22.7809" gradientTransform="matrix(1 0 0 -1 0 52)">
					<stop  offset="0" style="stop-color:#C6E1ED;stop-opacity:0.5"/>
					<stop  offset="0.3589" style="stop-color:#EDF6F9;stop-opacity:0.8514"/>
					<stop  offset="0.5108" style="stop-color:#FFFFFF"/>
					<stop  offset="1" style="stop-color:#D0E6F0;stop-opacity:0"/>
				</linearGradient>
				<path class="st52" d="M23.2,29.7c-0.2-0.4,0.7-1,0.9-0.4c0.1,0.1,0.1,0.2,0.1,0.2c-0.2-0.1-0.5-0.2-0.8,0
					C23.3,29.7,23.2,29.7,23.2,29.7z"/>
				
					<linearGradient id="SVGID_20_" gradientUnits="userSpaceOnUse" x1="24.0383" y1="22.2533" x2="23.3798" y2="22.8481" gradientTransform="matrix(1 0 0 -1 0 52)">
					<stop  offset="0.1505" style="stop-color:#C6E1ED;stop-opacity:3.997700e-02"/>
					<stop  offset="0.2206" style="stop-color:#DDEDF4;stop-opacity:0.2485"/>
					<stop  offset="0.3015" style="stop-color:#F0F7FA;stop-opacity:0.4892"/>
					<stop  offset="0.3847" style="stop-color:#FBFDFE;stop-opacity:0.7369"/>
					<stop  offset="0.4731" style="stop-color:#FFFFFF"/>
					<stop  offset="1" style="stop-color:#C6E1ED;stop-opacity:0"/>
				</linearGradient>
				<path class="st53" d="M23.2,29.6c0.1-0.3,0.6-0.7,0.9-0.2c0.1,0.1,0.1,0.2,0.1,0.3c0,0,0.1,0.1,0,0.2l0-0.2
					c-0.1-0.1,0-0.2-0.1-0.3C23.9,29,23.3,29.3,23.2,29.6z"/>
				
					<linearGradient id="SVGID_21_" gradientUnits="userSpaceOnUse" x1="23.9333" y1="21.7499" x2="23.3077" y2="22.3144" gradientTransform="matrix(1 0 0 -1 0 52)">
					<stop  offset="0.1505" style="stop-color:#C6E1ED;stop-opacity:3.997700e-02"/>
					<stop  offset="0.2206" style="stop-color:#DDEDF4;stop-opacity:0.2485"/>
					<stop  offset="0.3015" style="stop-color:#F0F7FA;stop-opacity:0.4892"/>
					<stop  offset="0.3847" style="stop-color:#FBFDFE;stop-opacity:0.7369"/>
					<stop  offset="0.4731" style="stop-color:#FFFFFF"/>
					<stop  offset="1" style="stop-color:#C6E1ED;stop-opacity:0"/>
				</linearGradient>
				<path class="st54" d="M23.3,29.9c0.2,0.1,0.5,0.2,0.7,0.2C23.8,30.1,23.6,30.1,23.3,29.9C23.3,29.9,23.3,29.9,23.3,29.9z"/>
				
					<linearGradient id="SVGID_22_" gradientUnits="userSpaceOnUse" x1="23.6248" y1="21.8963" x2="24.2267" y2="22.3396" gradientTransform="matrix(1 0 0 -1 0 52)">
					<stop  offset="0" style="stop-color:#C6E1ED;stop-opacity:3.997700e-02"/>
					<stop  offset="6.104220e-02" style="stop-color:#D7EAF2;stop-opacity:0.1466"/>
					<stop  offset="0.1534" style="stop-color:#EAF4F8;stop-opacity:0.3081"/>
					<stop  offset="0.2485" style="stop-color:#F5FAFC;stop-opacity:0.4742"/>
					<stop  offset="0.3495" style="stop-color:#F9FCFD;stop-opacity:0.6505"/>
					<stop  offset="1" style="stop-color:#C6E1ED;stop-opacity:0"/>
				</linearGradient>
				<path class="st55" d="M23.9,30L23.9,30C23.9,29.9,24,29.9,23.9,30c0.2-0.1,0.3-0.2,0.3-0.3l0,0.2C24.2,30,24.1,30,23.9,30z
					 M23.5,30c0.2,0,0.2,0.1,0.3,0.1L23.8,30C23.7,29.9,23.7,29.8,23.5,30C23.5,29.9,23.6,29.9,23.5,30z"/>
				<path class="st56" d="M24.2,29.7C24.1,29.6,24.1,29.6,24.2,29.7C24.1,29.8,24.1,29.8,24.2,29.7z"/>
				<path class="st56" d="M24.1,29.6C24,29.6,24,29.6,24.1,29.6C24.2,29.6,24.1,29.5,24.1,29.6z"/>
				<g class="st57">
					
						<radialGradient id="SVGID_23_" cx="-644.9153" cy="1911.819" r="1.4533" gradientTransform="matrix(-0.1805 0.1167 0.1298 0.2009 -340.8603 -279.3209)" gradientUnits="userSpaceOnUse">
						<stop  offset="0" style="stop-color:#FFFFFF"/>
						<stop  offset="0.4032" style="stop-color:#E0EFF5;stop-opacity:0.5947"/>
						<stop  offset="0.7538" style="stop-color:#CDE5EF;stop-opacity:0.2421"/>
						<stop  offset="0.9946" style="stop-color:#C6E1ED;stop-opacity:0"/>
					</radialGradient>
					<path class="st58" d="M23.4,29.7c-0.1-0.2-0.1-0.3,0.1-0.5c0.2-0.1,0.3-0.1,0.5,0.1c0.1,0.1,0.1,0.3-0.1,0.5
						C23.7,29.9,23.4,29.8,23.4,29.7z"/>
				</g>
				<g class="st57">
					
						<radialGradient id="SVGID_24_" cx="-736.1845" cy="2300.2888" r="1.4533" gradientTransform="matrix(-0.1444 9.332197e-02 0.1043 0.1614 -322.9833 -272.3445)" gradientUnits="userSpaceOnUse">
						<stop  offset="0" style="stop-color:#FFFFFF"/>
						<stop  offset="0.4032" style="stop-color:#E0EFF5;stop-opacity:0.5947"/>
						<stop  offset="0.7538" style="stop-color:#CDE5EF;stop-opacity:0.2421"/>
						<stop  offset="0.9946" style="stop-color:#C6E1ED;stop-opacity:0"/>
					</radialGradient>
					<path class="st59" d="M23.8,29.8c-0.1-0.1-0.1-0.3,0-0.4c0.1-0.1,0.2,0,0.4,0.1c0.1,0.1,0.1,0.3,0,0.4
						C24.2,30,24,29.9,23.8,29.8z"/>
				</g>
				<g class="st60">
					<path class="st61" d="M0.3,25.4l19,28.4l28-19.3l-19-28.4L0.3,25.4z"/>
					
						<radialGradient id="SVGID_25_" cx="-440.8638" cy="1076.0797" r="1.4538" gradientTransform="matrix(-0.401 0.2591 0.2745 0.4249 -448.4514 -313.0091)" gradientUnits="userSpaceOnUse">
						<stop  offset="0" style="stop-color:#8CD70D"/>
						<stop  offset="0.2047" style="stop-color:#89D30D;stop-opacity:0.8193"/>
						<stop  offset="0.4087" style="stop-color:#7EC70D;stop-opacity:0.6392"/>
						<stop  offset="0.6125" style="stop-color:#6DB30D;stop-opacity:0.4594"/>
						<stop  offset="0.8151" style="stop-color:#56970D;stop-opacity:0.2806"/>
						<stop  offset="0.9624" style="stop-color:#407E0D;stop-opacity:0.1506"/>
					</radialGradient>
					<path class="st62" d="M23.1,30.3c-0.2-0.4-0.2-0.8,0.1-1c0.3-0.2,0.8-0.2,1.1,0.2c0.2,0.4,0.2,0.8-0.1,1
						C23.9,30.7,23.4,30.6,23.1,30.3z"/>
				</g>
				<path class="st17" d="M21.9,20c-0.5-0.6-0.6-2.4,0.2-2.8c0.9-0.6,2.6-0.1,3.1,0.8c0.1,0.3,1.2,1.4-0.5,2.5
					C23.9,21,22.6,21,21.9,20z"/>
				<path class="st18" d="M21.9,20.1c-0.5-0.6-0.6-2.3,0.1-2.8c0.9-0.6,2.6-0.1,3,0.7c0.2,0.3,1.2,1.4-0.4,2.4
					C24,21,22.6,21,21.9,20.1z"/>
				<path class="st19" d="M22,20c-0.5-0.6-0.6-2.3,0.1-2.8c0.9-0.6,2.5,0,2.9,0.8c0.1,0.3,1.2,1.4-0.4,2.4C23.9,21,22.7,20.9,22,20z
					"/>
				<path class="st20" d="M22,20c-0.5-0.6-0.5-2.2,0.2-2.7c0.8-0.6,2.4-0.1,2.8,0.7c0.2,0.4,1.1,1.5-0.4,2.4
					C23.9,21,22.7,20.9,22,20z"/>
				<path class="st21" d="M22.1,20.1c-0.5-0.5-0.5-2.2,0.2-2.7c0.8-0.6,2.4-0.1,2.8,0.7c0.1,0.3,1.1,1.4-0.4,2.3
					C24,20.9,22.8,21,22.1,20.1z"/>
				<path class="st22" d="M22.2,20.1c-0.5-0.5-0.5-2.2,0.2-2.5c0.8-0.6,2.4,0,2.8,0.8c0.2,0.3,1.1,1.4-0.3,2.2
					C24,20.9,22.9,20.9,22.2,20.1z"/>
				<path class="st23" d="M22.2,20.1c-0.5-0.5-0.5-2.1,0.2-2.5c0.8-0.6,2.3-0.1,2.7,0.7c0.2,0.3,1.1,1.4-0.3,2.2
					C24,20.9,22.9,20.9,22.2,20.1z"/>
				<path class="st24" d="M22.2,20.1c-0.4-0.5-0.5-2.1,0.2-2.4c0.8-0.6,2.3-0.1,2.7,0.7c0.1,0.3,1,1.3-0.4,2.1
					C24,20.9,22.9,20.9,22.2,20.1z"/>
				<path class="st25" d="M22.3,20.1c-0.5-0.6-0.6-2,0.1-2.4c0.7-0.5,2.2-0.1,2.6,0.7c0.2,0.3,1,1.3-0.3,2.1
					C24,20.9,22.9,20.9,22.3,20.1z"/>
				<path class="st26" d="M22.3,20.1c-0.5-0.5-0.5-1.9,0.1-2.4c0.8-0.6,2.1-0.1,2.5,0.6c0.2,0.4,1,1.3-0.3,2.1
					C24,20.9,23,20.9,22.3,20.1z"/>
				<path class="st27" d="M22.3,20.1c-0.5-0.5-0.5-1.9,0.1-2.4c0.7-0.5,2.1-0.1,2.5,0.6c0.2,0.4,0.9,1.4-0.3,2.1
					C24,20.9,23,20.9,22.3,20.1z"/>
				<path class="st28" d="M22.4,20c-0.5-0.5-0.5-1.9,0.2-2.3c0.6-0.4,2,0,2.4,0.6c0.2,0.4,0.9,1.4-0.3,2.1C24,20.9,23,20.9,22.4,20z
					"/>
				<path class="st29" d="M22.5,20.1c-0.5-0.5-0.4-1.8,0.1-2.2c0.7-0.5,2.1-0.1,2.4,0.6c0.2,0.4,0.9,1.3-0.2,2
					C24,20.9,23,20.8,22.5,20.1z"/>
				<path class="st30" d="M22.5,20.1c-0.5-0.5-0.4-1.8,0.1-2.2c0.7-0.5,1.9-0.1,2.4,0.6c0.2,0.4,0.9,1.3-0.3,1.9
					C24.1,20.8,23,20.8,22.5,20.1z"/>
				<path class="st31" d="M22.6,20.1c-0.5-0.5-0.5-1.7,0.2-2.1c0.6-0.4,1.9-0.1,2.3,0.5c0.2,0.4,0.9,1.3-0.3,1.9
					C24.1,20.8,23,20.8,22.6,20.1z"/>
				<path class="st32" d="M22.5,20.1c-0.5-0.5-0.5-1.7,0.2-2.1c0.6-0.4,1.9-0.1,2.2,0.6c0.2,0.4,0.8,1.2-0.3,1.9
					C24.1,20.8,23.1,20.7,22.5,20.1z"/>
				<path class="st33" d="M22.6,20.2c-0.5-0.5-0.5-1.7,0.1-2c0.6-0.4,1.8-0.1,2.2,0.5c0.2,0.4,0.7,1.2-0.2,1.9
					C24.1,20.8,23.2,20.8,22.6,20.2z"/>
				<path class="st34" d="M22.7,20.1c-0.5-0.5-0.4-1.6,0.1-2c0.6-0.4,1.8-0.1,2.2,0.5c0.2,0.4,0.7,1.2-0.2,1.9
					C24.1,20.8,23.2,20.8,22.7,20.1z"/>
				<path class="st35" d="M22.7,20.1c-0.5-0.5-0.4-1.6,0.1-2c0.6-0.4,1.7-0.1,2.1,0.6c0.2,0.4,0.7,1.2-0.3,1.8
					C24.1,20.8,23.3,20.8,22.7,20.1z"/>
				<path class="st36" d="M22.7,20.1c-0.5-0.5-0.4-1.6,0.2-1.9c0.6-0.4,1.7-0.1,2,0.5c0.3,0.5,0.6,1.2-0.3,1.8
					C24.1,20.8,23.3,20.8,22.7,20.1z"/>
				<path class="st37" d="M22.9,20.1c-0.4-0.5-0.3-1.5,0.1-1.8c0.5-0.4,1.6-0.2,2,0.5c0.3,0.5,0.6,1.2-0.2,1.7
					C24.1,20.8,23.3,20.8,22.9,20.1z"/>
				<path class="st38" d="M22.9,20.1c-0.4-0.5-0.4-1.4,0.1-1.8c0.5-0.4,1.5-0.1,1.9,0.4c0.3,0.5,0.6,1.2-0.2,1.7
					C24.2,20.8,23.4,20.7,22.9,20.1z"/>
				<path class="st39" d="M22.9,20.1c-0.4-0.5-0.4-1.4,0.2-1.7c0.5-0.4,1.5-0.1,1.9,0.4c0.3,0.5,0.6,1.2-0.2,1.6
					C24.2,20.8,23.4,20.7,22.9,20.1z"/>
				<path class="st40" d="M22.9,20.1c-0.4-0.4-0.4-1.3,0.1-1.7c0.5-0.4,1.5-0.1,1.9,0.4c0.3,0.5,0.5,1.1-0.2,1.6
					C24.2,20.8,23.4,20.7,22.9,20.1z"/>
				<path class="st41" d="M23,20.2c-0.4-0.5-0.4-1.3,0.1-1.7c0.5-0.4,1.4-0.1,1.7,0.4c0.3,0.5,0.5,1.1-0.1,1.6
					C24.2,20.8,23.4,20.7,23,20.2z"/>
				<path class="st42" d="M23,20.2c-0.4-0.5-0.3-1.2,0.1-1.6c0.5-0.4,1.4-0.1,1.7,0.4c0.3,0.5,0.5,1.1-0.1,1.6
					C24.2,20.8,23.5,20.6,23,20.2z"/>
				<path class="st43" d="M23.1,20.1c-0.4-0.5-0.3-1.2,0.1-1.6c0.5-0.3,1.4-0.1,1.7,0.4c0.3,0.5,0.5,1.1-0.2,1.5
					C24.2,20.8,23.5,20.6,23.1,20.1z"/>
				<path class="st44" d="M23.1,20.1c-0.4-0.5-0.4-1.2,0.1-1.6c0.5-0.3,1.2-0.2,1.6,0.4c0.3,0.5,0.3,1.1-0.2,1.5
					C24.2,20.8,23.5,20.6,23.1,20.1z"/>
				<path class="st45" d="M23.2,20.2c-0.3-0.5-0.3-1.1,0.1-1.4c0.5-0.3,1.2-0.2,1.6,0.4c0.3,0.5,0.3,1.1-0.1,1.4
					C24.2,20.8,23.6,20.6,23.2,20.2z"/>
				<path class="st46" d="M23.2,20.1c-0.3-0.5-0.3-1.1,0.1-1.4c0.5-0.3,1.1-0.1,1.5,0.3c0.3,0.5,0.3,1.1-0.1,1.4
					C24.2,20.8,23.6,20.7,23.2,20.1z"/>
				<path class="st47" d="M23.3,20.1c-0.3-0.5-0.3-1.1,0.2-1.3c0.5-0.3,1.1-0.1,1.4,0.3c0.3,0.5,0.3,1.1-0.2,1.3
					C24.3,20.7,23.6,20.7,23.3,20.1z"/>
				<path class="st48" d="M23.1,20.2c-0.8-1,1.3-2.5,2-1.2c0.1,0.3,0.2,0.5,0.2,0.8c0,0.2,0,0.2,0,0.4c-0.1,0.3-0.3,0.6-0.5,0.6
					c-0.4,0.2-1-0.1-1.5-0.3C23.2,20.4,23.1,20.3,23.1,20.2z"/>
				
					<radialGradient id="SVGID_26_" cx="-348.2607" cy="637.4979" r="1.4533" gradientTransform="matrix(-0.9193 0.5941 0.6566 1.016 -715.0963 -420.7352)" gradientUnits="userSpaceOnUse">
					<stop  offset="3.225810e-02" style="stop-color:#C7E2ED"/>
					<stop  offset="0.768" style="stop-color:#A6C7E0"/>
					<stop  offset="1" style="stop-color:#9ABDDB"/>
				</radialGradient>
				<path class="st63" d="M23.1,20.3c-0.8-1,1.3-2.5,2-1.2c0.1,0.2,0.2,0.5,0.2,0.8c0,0.2,0,0.2,0,0.4c-0.1,0.3-0.3,0.5-0.6,0.5
					c-0.4,0.2-1-0.1-1.5-0.3C23.2,20.4,23.2,20.4,23.1,20.3z"/>
				
					<radialGradient id="SVGID_27_" cx="-378.5468" cy="743.6494" r="1.4533" gradientTransform="matrix(-0.6533 0.4222 0.4897 0.7578 -587.7217 -383.6646)" gradientUnits="userSpaceOnUse">
					<stop  offset="0.2903" style="stop-color:#C6E1ED;stop-opacity:3.997700e-02"/>
					<stop  offset="0.4766" style="stop-color:#9FC4D9;stop-opacity:0.3568"/>
					<stop  offset="0.8548" style="stop-color:#4581AD"/>
					<stop  offset="0.9163" style="stop-color:#4485B3;stop-opacity:0.7036"/>
					<stop  offset="0.9966" style="stop-color:#4190C3;stop-opacity:0.3165"/>
					<stop  offset="1" style="stop-color:#4191C4;stop-opacity:0.3"/>
				</radialGradient>
				<path class="st64" d="M23.1,20.3c-0.8-1,1.3-2.5,2-1.2c0.1,0.2,0.2,0.5,0.2,0.8c0,0.2,0,0.2,0,0.4c-0.1,0.3-0.3,0.5-0.6,0.5
					c-0.4,0.2-1-0.1-1.5-0.3C23.2,20.4,23.2,20.4,23.1,20.3z"/>
				
					<linearGradient id="SVGID_28_" gradientUnits="userSpaceOnUse" x1="24.8272" y1="31.0647" x2="23.5204" y2="33.2384" gradientTransform="matrix(1 0 0 -1 0 52)">
					<stop  offset="0.4785" style="stop-color:#C6E1ED;stop-opacity:3.997700e-02"/>
					<stop  offset="0.5658" style="stop-color:#D2E7F1;stop-opacity:0.2007"/>
					<stop  offset="0.8462" style="stop-color:#F3F8FB;stop-opacity:0.7169"/>
					<stop  offset="1" style="stop-color:#FFFFFF"/>
				</linearGradient>
				<path class="st65" d="M23.1,20.3c-0.8-1,1.3-2.5,2-1.2c0.1,0.2,0.2,0.5,0.2,0.8c0,0.2,0,0.2,0,0.4c-0.1,0.3-0.3,0.5-0.6,0.5
					c-0.4,0.2-1-0.1-1.5-0.3C23.2,20.4,23.2,20.4,23.1,20.3z"/>
				
					<linearGradient id="SVGID_29_" gradientUnits="userSpaceOnUse" x1="23.1557" y1="31.7614" x2="24.833" y2="33.0858" gradientTransform="matrix(1 0 0 -1 0 52)">
					<stop  offset="0" style="stop-color:#C6E1ED;stop-opacity:0.5"/>
					<stop  offset="0.3589" style="stop-color:#EDF6F9;stop-opacity:0.8514"/>
					<stop  offset="0.5108" style="stop-color:#FFFFFF"/>
					<stop  offset="1" style="stop-color:#D0E6F0;stop-opacity:0"/>
				</linearGradient>
				<path class="st66" d="M22.9,20.1c-0.4-0.9,1.5-2.1,2.1-0.9c0.1,0.2,0.1,0.3,0.2,0.5c-0.4-0.4-1.2-0.5-1.9,0
					C23.2,19.7,23.1,19.8,22.9,20.1z"/>
				
					<linearGradient id="SVGID_30_" gradientUnits="userSpaceOnUse" x1="24.7314" y1="31.9018" x2="23.2828" y2="33.2067" gradientTransform="matrix(1 0 0 -1 0 52)">
					<stop  offset="0.1505" style="stop-color:#C6E1ED;stop-opacity:3.997700e-02"/>
					<stop  offset="0.2206" style="stop-color:#DDEDF4;stop-opacity:0.2485"/>
					<stop  offset="0.3015" style="stop-color:#F0F7FA;stop-opacity:0.4892"/>
					<stop  offset="0.3847" style="stop-color:#FBFDFE;stop-opacity:0.7369"/>
					<stop  offset="0.4731" style="stop-color:#FFFFFF"/>
					<stop  offset="1" style="stop-color:#C6E1ED;stop-opacity:0"/>
				</linearGradient>
				<path class="st67" d="M23,19.8c0.1-0.8,1.4-1.5,2-0.6c0.1,0.2,0.2,0.5,0.2,0.8c0.1,0.1,0,0.2,0,0.4c0,0,0.1,0.1,0,0.2
					c0-0.2,0-0.2,0-0.4c0-0.2-0.1-0.5-0.2-0.8C24.5,18.4,23.2,18.9,23,19.8z"/>
				
					<linearGradient id="SVGID_31_" gradientUnits="userSpaceOnUse" x1="24.7648" y1="31.1116" x2="23.3891" y2="32.3496" gradientTransform="matrix(1 0 0 -1 0 52)">
					<stop  offset="0.1505" style="stop-color:#C6E1ED;stop-opacity:3.997700e-02"/>
					<stop  offset="0.2206" style="stop-color:#DDEDF4;stop-opacity:0.2485"/>
					<stop  offset="0.3015" style="stop-color:#F0F7FA;stop-opacity:0.4892"/>
					<stop  offset="0.3847" style="stop-color:#FBFDFE;stop-opacity:0.7369"/>
					<stop  offset="0.4731" style="stop-color:#FFFFFF"/>
					<stop  offset="1" style="stop-color:#C6E1ED;stop-opacity:0"/>
				</linearGradient>
				<path class="st68" d="M23.2,20.3c0.1-0.1,0.2,0,0.2,0.1c0.4,0.2,0.9,0.4,1.4,0.3c0.1-0.1,0.3-0.1,0.4-0.2c0,0.2-0.2,0.3-0.5,0.3
					c-0.4,0.2-0.9,0-1.4-0.3C23.3,20.5,23.3,20.4,23.2,20.3z"/>
				
					<linearGradient id="SVGID_32_" gradientUnits="userSpaceOnUse" x1="23.8482" y1="31.2877" x2="25.1697" y2="32.2609" gradientTransform="matrix(1 0 0 -1 0 52)">
					<stop  offset="0" style="stop-color:#C6E1ED;stop-opacity:3.997700e-02"/>
					<stop  offset="6.104220e-02" style="stop-color:#D7EAF2;stop-opacity:0.1466"/>
					<stop  offset="0.1534" style="stop-color:#EAF4F8;stop-opacity:0.3081"/>
					<stop  offset="0.2485" style="stop-color:#F5FAFC;stop-opacity:0.4742"/>
					<stop  offset="0.3495" style="stop-color:#F9FCFD;stop-opacity:0.6505"/>
					<stop  offset="1" style="stop-color:#C6E1ED;stop-opacity:0"/>
				</linearGradient>
				<path class="st69" d="M24.6,20.6c-0.1-0.1-0.1-0.2-0.1-0.3l0.2,0c0.2,0,0.4-0.2,0.5-0.4c-0.1,0.1,0,0.2-0.1,0.3
					C25.1,20.5,24.9,20.6,24.6,20.6z M23.7,20.4c0.2,0.1,0.4,0.2,0.7,0.3c-0.1-0.1-0.1-0.2-0.1-0.3c-0.2-0.1-0.4-0.1-0.6-0.3
					C23.8,20.3,23.7,20.4,23.7,20.4z"/>
				<path class="st56" d="M24.9,19.9c-0.1-0.1,0-0.2,0-0.2s0.1,0.1,0.1,0.2C25.1,20,25.1,20.1,24.9,19.9C25,20.1,24.9,20,24.9,19.9z
					"/>
				<path class="st56" d="M24.9,19.6C25.1,19.5,25.1,19.7,24.9,19.6C25,19.7,25,19.7,24.9,19.6z"/>
				<g class="st57">
					
						<radialGradient id="SVGID_33_" cx="-446.9266" cy="1044.3988" r="1.4533" gradientTransform="matrix(-0.3958 0.2558 0.2846 0.4405 -450.1277 -326.1951)" gradientUnits="userSpaceOnUse">
						<stop  offset="0" style="stop-color:#FFFFFF"/>
						<stop  offset="0.4032" style="stop-color:#E0EFF5;stop-opacity:0.5947"/>
						<stop  offset="0.7538" style="stop-color:#CDE5EF;stop-opacity:0.2421"/>
						<stop  offset="0.9946" style="stop-color:#C6E1ED;stop-opacity:0"/>
					</radialGradient>
					<path class="st70" d="M23.4,19.9c-0.2-0.4-0.2-0.8,0.1-1c0.3-0.2,0.8-0.2,1.1,0.2c0.2,0.4,0.2,0.8-0.1,1
						C24.1,20.4,23.5,20.2,23.4,19.9z"/>
				</g>
				<g class="st57">
					
						<radialGradient id="SVGID_34_" cx="-489.9434" cy="1221.4058" r="1.4533" gradientTransform="matrix(-0.3164 0.2044 0.2285 0.3536 -410.0467 -311.3228)" gradientUnits="userSpaceOnUse">
						<stop  offset="0" style="stop-color:#FFFFFF"/>
						<stop  offset="0.4032" style="stop-color:#E0EFF5;stop-opacity:0.5947"/>
						<stop  offset="0.7538" style="stop-color:#CDE5EF;stop-opacity:0.2421"/>
						<stop  offset="0.9946" style="stop-color:#C6E1ED;stop-opacity:0"/>
					</radialGradient>
					<path class="st71" d="M24.4,20.1c-0.2-0.3-0.2-0.7,0-0.8c0.3-0.2,0.6,0,0.8,0.2c0.2,0.3,0.2,0.7,0,0.8
						C25,20.5,24.6,20.4,24.4,20.1z"/>
				</g>
				<g class="st60">
					<path class="st61" d="M-0.1,15.8l19.5,29L48.2,25l-19.5-29L-0.1,15.8z"/>
					
						<radialGradient id="SVGID_35_" cx="-391.7285" cy="755.1957" r="1.4515" gradientTransform="matrix(-0.6574 0.402 0.4556 0.7451 -577.4859 -384.8448)" gradientUnits="userSpaceOnUse">
						<stop  offset="0" style="stop-color:#8CD70D"/>
						<stop  offset="0.2047" style="stop-color:#89D30D;stop-opacity:0.8193"/>
						<stop  offset="0.4087" style="stop-color:#7EC70D;stop-opacity:0.6392"/>
						<stop  offset="0.6125" style="stop-color:#6DB30D;stop-opacity:0.4594"/>
						<stop  offset="0.8151" style="stop-color:#56970D;stop-opacity:0.2806"/>
						<stop  offset="0.9624" style="stop-color:#407E0D;stop-opacity:0.1506"/>
					</radialGradient>
					<path class="st72" d="M23.2,21c-0.4-0.5-0.3-1.2,0.1-1.6c0.5-0.4,1.4-0.1,1.7,0.4c0.5,0.5,0.4,1.2-0.1,1.6
						C24.3,21.8,23.5,21.5,23.2,21z"/>
				</g>
				
					<radialGradient id="SVGID_36_" cx="-375.0047" cy="307.8274" r="1.4533" gradientTransform="matrix(-2.0933 -3.1205 -3.2381 2.1722 227.3584 -1808.0702)" gradientUnits="userSpaceOnUse">
					<stop  offset="0" style="stop-color:#D7FF7A"/>
					<stop  offset="0.2377" style="stop-color:#D4FE74;stop-opacity:0.7623"/>
					<stop  offset="0.5632" style="stop-color:#CCFC62;stop-opacity:0.4368"/>
					<stop  offset="0.938" style="stop-color:#BFF845;stop-opacity:6.200240e-02"/>
					<stop  offset="1" style="stop-color:#BDF740;stop-opacity:0"/>
				</radialGradient>
				<path class="st73" d="M22.1,34.3c-1-0.3-1.9-0.5-3-0.9l-0.4-0.1c-0.1,0.1-0.2,0-0.4,0c-0.2-0.1-0.5-0.2-0.7-0.3l-1.5-0.6
					c-0.7-0.3-1.4-0.7-2-1c-0.6-0.4-1.3-0.8-1.9-1.2c-0.6-0.5-1.2-0.9-1.8-1.4c-0.3-0.2-0.5-0.6-0.8-0.8L9,27.2l1.7,1.5l1.8,1.3
					c0.7,0.3,1.3,0.7,1.9,1.1c0.6,0.4,1.4,0.7,2,1l1.5,0.6l0.7,0.3c0.2,0,0.2,0.1,0.4,0.1l0.4,0.1C20.2,33.7,21.2,33.9,22.1,34.3z"
					/>
				
					<radialGradient id="SVGID_37_" cx="-343.3613" cy="312.5654" r="1.4533" gradientTransform="matrix(-3.0652 -4.5694 -4.7416 3.1807 464.5008 -2537.1777)" gradientUnits="userSpaceOnUse">
					<stop  offset="0" style="stop-color:#BDF740;stop-opacity:0.8531"/>
					<stop  offset="8.613959e-02" style="stop-color:#C6FA54;stop-opacity:0.8658"/>
					<stop  offset="0.1928" style="stop-color:#CEFC65;stop-opacity:0.8814"/>
					<stop  offset="0.3249" style="stop-color:#D3FE71;stop-opacity:0.9008"/>
					<stop  offset="0.5086" style="stop-color:#D6FF78;stop-opacity:0.9278"/>
					<stop  offset="1" style="stop-color:#D7FF7A"/>
				</radialGradient>
				<path class="st74" d="M29,16.3c0,0,0.2,0.3,0.6,0.8c0.2,0.3,0.4,0.5,0.6,0.9c0.2,0.4,0.5,0.7,0.8,1.2c0.3,0.5,0.5,1,0.9,1.5
					c0.4,0.5,0.7,1,0.9,1.6c0.6,1.2,1.3,2.5,2,3.7c0.3,0.6,0.7,1.2,1,1.9c0.4,0.6,0.8,1.2,1.2,1.7c0.4,0.5,0.7,1.1,0.9,1.6
					c0.3,0.5,0.7,1,1,1.5c0.3,0.5,0.5,0.8,0.9,1.1c0.2,0.4,0.5,0.6,0.7,0.8c0.5,0.5,0.6,0.8,0.6,0.8s-0.3-0.2-0.7-0.7
					c-0.4-0.4-1.1-1.1-1.7-1.9c-0.3-0.5-0.7-0.8-1.1-1.4c-0.4-0.5-0.7-1-1.1-1.6c-0.3-0.5-0.7-1-1-1.7c-0.3-0.6-0.7-1.2-1-1.9
					c-0.7-1.2-1.3-2.6-2-3.7c-0.6-1.2-1.2-2.2-1.7-3.1c-0.5-1-1-1.7-1.3-2.2C29.2,16.7,29,16.3,29,16.3z"/>
			</g>
		</g>
	</g>
</g>
</svg>
